<?xml version="1.0" standalone="no"?>
<!DOCTYPE svg PUBLIC "-//W3C//DTD SVG 1.1//EN" "http://www.w3.org/Graphics/SVG/1.1/DTD/svg11.dtd" >
<svg>
<metadata>
Created by FontForge 20090622 at Tue Jul  2 01:38:13 2019
 By deploy user
Copyright (C) 2018 Hoefler &#38; Co. http://www.typography.com
</metadata>
<defs>
<font id="Isotope-Medium" horiz-adv-x="500" >
  <font-face 
    font-family="Isotope Med"
    font-weight="500"
    font-stretch="normal"
    units-per-em="1000"
    panose-1="2 0 7 0 0 0 0 0 0 0"
    ascent="800"
    descent="-200"
    x-height="560"
    cap-height="700"
    bbox="-69 -279 1116 1053"
    underline-thickness="91"
    underline-position="-91"
    unicode-range="U+0020-U+FEFF"
  />
<missing-glyph 
d="M500 -200h-500v1000h500v-1000zM429 750h-358l179 -390zM50 676v-752l172 376zM450 -76v752l-172 -376zM429 -150l-179 390l-179 -390h358z" />
    <glyph glyph-name=".notdef" 
d="M500 -200h-500v1000h500v-1000zM429 750h-358l179 -390zM50 676v-752l172 376zM450 -76v752l-172 -376zM429 -150l-179 390l-179 -390h358z" />
    <glyph glyph-name=".null" horiz-adv-x="0" 
 />
    <glyph glyph-name="nonmarkingreturn" horiz-adv-x="333" 
 />
    <glyph glyph-name="space" unicode=" " horiz-adv-x="272" 
 />
    <glyph glyph-name="exclam" unicode="!" horiz-adv-x="349" 
d="M108 227l-22 473h177l-20 -473h-135zM96 0v136h159v-136h-159z" />
    <glyph glyph-name="quotedbl" unicode="&#x22;" horiz-adv-x="514" 
d="M82 376l-26 324h170l-26 -324h-118zM313 376l-25 324h170l-26 -324h-119z" />
    <glyph glyph-name="numbersign" unicode="#" horiz-adv-x="886" 
d="M52 134v122h144l42 188h-131v122h158l29 134h125l-30 -134h202l29 134h124l-29 -134h119v-122h-146l-41 -188h132v-122h-159l-29 -134h-124l29 134h-203l-30 -134h-123l29 134h-117zM362 444l-42 -188h203l41 188h-202z" />
    <glyph glyph-name="dollar" unicode="$" horiz-adv-x="685" 
d="M274 -134h-118l40 134h-138v109h315q61 0 61 45q0 16 -11 33q-11 15 -39 37l-201 155q-65 49 -90 87q-15 19 -21 41q-7 20 -7 47q0 75 49.5 110.5t127.5 35.5h142l38 127h119l-38 -127h122v-109h-304q-58 0 -58 -43q0 -17 12 -32q9 -12 37 -34l201 -155
q43 -33 70.5 -62.5t40.5 -67.5q6 -23 6 -48q0 -75 -49.5 -112t-127.5 -37h-139z" />
    <glyph glyph-name="percent" unicode="%" horiz-adv-x="995" 
d="M179 704h164q33 0 56 -6q22 -7 37 -22t23 -31.5t12 -40.5t5 -41t1 -42q0 -93 -26 -137.5t-108 -44.5h-164q-54 0 -81.5 16.5t-41.5 64.5q-10 33 -10 101q0 32 2 53.5t8.5 49.5t23.5 46.5t44 27.5q22 6 55 6zM276 637h-31q-28 0 -40 -9t-17 -36q-4 -20 -4 -71t4 -71
q5 -26 17 -35.5t40 -9.5h31q27 0 40 9.5t18 35.5q4 20 4 71t-4 71q-6 27 -18.5 36t-39.5 9zM540 432l179 268h190l-259 -268h-110zM652 361h164q53 0 81.5 -17t42.5 -64q10 -33 10 -101q0 -30 -2 -52t-9 -50.5t-24 -47.5t-44 -26q-21 -7 -55 -7h-164q-35 0 -56 7
q-78 20 -78 176q0 45 4.5 74.5t18 56t41 39t70.5 12.5zM750 295h-31q-28 0 -40 -9.5t-17 -35.5q-5 -25 -5 -71t5 -71q6 -28 18 -36.5t39 -8.5h31q28 0 40 9t17 36q4 20 4 71t-4 71q-5 26 -17 35.5t-40 9.5zM455 268l-179 -268h-190l259 268h110z" />
    <glyph glyph-name="ampersand" unicode="&#x26;" horiz-adv-x="767" 
d="M520 309l96 122h143l-169 -206l185 -225h-197l-88 107l-33 -38q-33 -41 -63 -55t-82 -14h-99q-51 0 -82 6q-30 4 -49.5 22t-27 48t-9.5 52t-2 56q0 38 1 56.5t6.5 44t17 40t33 30t53.5 27.5l84 31l-21 26q-25 30 -36 45.5t-25 45.5t-14 56q0 114 148 114h288v-109h-210
q-21 0 -31 -8q-9 -9 -9 -22q0 -14 10 -27q9 -15 37 -49zM281 100h14q21 0 38 8t26 16.5t27 29.5l33 39l-115 140l-35 -12q-43 -14 -51 -34q-5 -9 -7 -28q-2 -24 -2 -52q0 -45 4 -62q5 -38 37 -42q14 -3 31 -3z" />
    <glyph glyph-name="quotesingle" unicode="'" horiz-adv-x="288" 
d="M79 376l-23 324h176l-23 -324h-130z" />
    <glyph glyph-name="parenleft" unicode="(" horiz-adv-x="514" 
d="M320 781h154v-86h-81q-56 0 -77 -21q-53 -53 -53 -395q0 -177 13 -264q8 -56 17 -85q11 -42 32.5 -55t67.5 -13h81v-86h-154q-107 0 -145 38q-78 78 -78 465q0 384 80 464q17 17 44 26t47 10.5t52 1.5z" />
    <glyph glyph-name="parenright" unicode=")" horiz-adv-x="514" 
d="M195 -224h-155v86h81q47 0 67 12.5t33 54.5q20 64 26 203q3 66 3 146q0 344 -52 396q-21 21 -77 21h-81v86h155q32 0 52 -1.5t47.5 -10.5t44.5 -26q79 -79 79 -465q0 -382 -82 -464q-38 -38 -141 -38z" />
    <glyph glyph-name="asterisk" unicode="*" horiz-adv-x="501" 
d="M194 579l33 147h47l33 -147l145 14l14 -43l-124 -72l65 -138l-35 -26l-122 99l-121 -99l-35 26l65 138l-124 72l14 43z" />
    <glyph glyph-name="plus" unicode="+" horiz-adv-x="732" 
d="M295 417v219h143v-219h223v-124h-223v-220h-143v220h-223v124h223z" />
    <glyph glyph-name="comma" unicode="," horiz-adv-x="303" 
d="M37 -170l46 332h175l-92 -332h-129z" />
    <glyph glyph-name="hyphen" unicode="-" horiz-adv-x="391" 
d="M43 218v125h306v-125h-306z" />
    <glyph glyph-name="period" unicode="." horiz-adv-x="316" 
d="M69 0v162h178v-162h-178z" />
    <glyph glyph-name="slash" unicode="/" horiz-adv-x="560" 
d="M5 -224l402 1005h148l-402 -1005h-148z" />
    <glyph glyph-name="zero" unicode="0" horiz-adv-x="791" 
d="M279 704h233q92 0 131.5 -28.5t62.5 -114.5q19 -73 19 -211q0 -43 -1 -73t-8 -81t-19 -85t-37.5 -65t-60.5 -41q-33 -9 -87 -9h-233q-92 0 -132 28.5t-62 115.5q-19 72 -19 210q0 35 1 59.5t4 67t11.5 73t22 63t36 53.5t52.5 29q32 9 86 9zM417 601h-43q-36 0 -53 -4
t-31 -16q-21 -23 -30 -75q-10 -51 -10 -156q0 -102 9 -155q10 -58 33.5 -77t81.5 -19h42q36 0 53 4q19 4 32 16q22 22 31 75q9 52 9 156q0 99 -8 155q-10 60 -34 78t-82 18z" />
    <glyph glyph-name="one" unicode="1" horiz-adv-x="449" 
d="M39 590l17 110h279v-700h-183v590h-113z" />
    <glyph glyph-name="two" unicode="2" horiz-adv-x="691" 
d="M73 585l17 115h385q162 0 162 -114q0 -55 -45 -112q-13 -18 -39 -49l-237 -272l-14 -18q-5 -7 -5 -10q0 -10 16 -10h321v-115h-558v86q0 22 4 30q3 10 15 23l287 330q26 31 36 47q11 19 11 32q0 20 -12 29q-14 8 -44 8h-300z" />
    <glyph glyph-name="three" unicode="3" horiz-adv-x="683" 
d="M56 590l16 110h543v-82q0 -35 -18 -53l-198 -174h25q115 0 158 -40t43 -154q0 -166 -106 -189q-40 -8 -92 -8h-354l-16 110h293q52 0 68 25.5t16 78.5q0 63 -23 86q-8 10 -23 13t-38 3h-163v51q0 12 11 22l192 166q10 9 15 15q3 6 3 11q0 9 -13 9h-339z" />
    <glyph glyph-name="four" unicode="4" horiz-adv-x="747" 
d="M329 700h286v-442h109v-111h-109v-147h-174v147h-401v74q0 30 16 58l234 396q10 17 15.5 21t23.5 4zM429 602h-12q-11 0 -18 -12l-175 -305q-7 -14 -7 -18q0 -9 14 -9h210v334q0 10 -12 10z" />
    <glyph glyph-name="five" unicode="5" horiz-adv-x="704" 
d="M90 318v382h539l-18 -110h-348v-170h190q119 0 157 -41q44 -41 44 -169q0 -120 -39.5 -165t-156.5 -45h-359l-18 110h292q37 0 50 4q15 5 25 13q22 22 22 87q0 64 -18.5 84t-78.5 20h-283z" />
    <glyph glyph-name="six" unicode="6" horiz-adv-x="725" 
d="M281 700h341l15 -110h-268q-35 0 -55 -3q-20 -5 -31 -16q-32 -32 -38 -141h217q63 0 100 -7.5t63.5 -30.5t36.5 -62.5t10 -104.5q0 -129 -44.5 -179t-165.5 -50h-188q-88 0 -129.5 29t-60.5 111q-18 69 -18 209q0 38 0.5 61t4 66.5t11.5 73t21.5 62.5t36.5 54.5t53 29.5
q35 8 88 8zM360 96h31q43 0 66.5 12t34.5 49q6 25 6 56q0 42 -4 62q-9 41 -50 50q-17 4 -62 4h-139q2 -99 8 -140q9 -55 32.5 -74t76.5 -19z" />
    <glyph glyph-name="seven" unicode="7" horiz-adv-x="659" 
d="M47 585v115h573v-84q0 -13 -2 -25q-4 -12 -13 -30l-269 -561h-195l269 552l6 15q2 6 2 8q0 10 -16 10h-355z" />
    <glyph glyph-name="eight" unicode="8" horiz-adv-x="736" 
d="M236 702h295q147 0 147 -112q0 -50 -53 -126l-88 -124l39 -32q62 -52 87 -82q28 -34 28 -83q0 -72 -48.5 -108.5t-123.5 -36.5h-318q-147 0 -147 112q0 47 48 113l107 150l-22 18q-60 49 -88 85q-28 34 -28 85q0 70 46.5 105.5t118.5 35.5zM311 502l119 -92l70 101
q16 23 22 37q5 13 5 20q0 33 -50 33h-169q-52 0 -52 -35q0 -16 12 -27q12 -12 43 -37zM257 99h191q57 0 57 38q0 15 -11 28q-9 9 -41 33l-137 105l-80 -115q-29 -39 -29 -57q0 -32 50 -32z" />
    <glyph glyph-name="nine" unicode="9" horiz-adv-x="725" 
d="M444 0h-340l-16 110h268q39 0 56 4q20 3 30 15q31 31 39 135h-216q-41 0 -68 3t-56.5 13.5t-48.5 33.5t-28 59q-11 44 -11 99q0 189 118 222q36 10 98 10h182q89 0 129.5 -28t61.5 -111q17 -76 17 -210q0 -35 -1 -59t-4 -67t-11 -74t-21 -64t-35.5 -54t-52.5 -28
q-33 -9 -90 -9zM343 366h140q-1 90 -9 143q-8 57 -31 76t-77 19h-31q-46 0 -68 -11t-33 -50q-7 -27 -7 -61q0 -76 22 -96t94 -20z" />
    <glyph glyph-name="colon" unicode=":" horiz-adv-x="316" 
d="M69 344v162h178v-162h-178zM69 0v162h178v-162h-178z" />
    <glyph glyph-name="semicolon" unicode=";" horiz-adv-x="328" 
d="M81 344v162h178v-162h-178zM37 -170l46 332h175l-92 -332h-129z" />
    <glyph glyph-name="less" unicode="&#x3c;" horiz-adv-x="617" 
d="M74 387l273 240h214l-276 -244q-17 -14 -19 -17q-4 -4 -4 -9t4 -9q9 -9 19 -18l276 -248h-214l-273 240q-14 13 -18 19q-5 8 -5 14t5 14q4 6 18 18z" />
    <glyph glyph-name="equal" unicode="=" horiz-adv-x="699" 
d="M616 417h-532v122h532v-122zM616 172h-532v122h532v-122z" />
    <glyph glyph-name="greater" unicode="&#x3e;" horiz-adv-x="617" 
d="M543 321l-273 -239h-214l276 244q11 9 20 18q3 4 3 8q0 5 -4 9q-1 1 -3 2.5t-4 3.5t-5.5 5t-6.5 6l-276 249h214l273 -240q3 -3 8 -7.5t7.5 -7t3.5 -4.5q4 -7 4 -14q0 -8 -4 -13q-2 -3 -19 -20z" />
    <glyph glyph-name="question" unicode="?" horiz-adv-x="557" 
d="M34 590v110h362q142 0 142 -105q0 -37 -21 -76q-28 -49 -62 -99l-131 -193h-151l123 230l36 67q12 22 12 36q0 30 -48 30h-262zM168 0v136h159v-136h-159z" />
    <glyph glyph-name="at" unicode="@" horiz-adv-x="810" 
d="M283 654h305q88 0 120.5 -39.5t32.5 -125.5v-390h-303q-44 0 -66 6q-77 15 -77 179q0 145 75 166q25 7 68 8l153 8v15q0 46 -14.5 65.5t-56.5 19.5h-191q-40 0 -61 -6q-96 -34 -96 -280t96 -281q20 -7 61 -7h412l-16 -88h-442q-61 0 -95 16.5t-65 64.5q-62 102 -62 293
q0 49 5.5 99t20 109t45.5 102.5t76 56.5q28 9 75 9zM591 188v206l-81 -5q-19 -1 -29.5 -3.5t-19.5 -12t-12 -28.5t-3 -55q0 -34 3 -56q4 -27 17.5 -36.5t43.5 -9.5h81z" />
    <glyph glyph-name="A" unicode="A" horiz-adv-x="784" 
d="M29 0l255 700h198q25 0 34 -6q8 -6 15 -27l225 -667h-200l-41 130h-302l-46 -130h-138zM358 545l-106 -302h227l-95 302q-1 6 -4 9q-4 2 -9 2q-6 0 -8 -2q-4 -2 -5 -9z" />
    <glyph glyph-name="B" unicode="B" horiz-adv-x="792" 
d="M101 0v700h456q29 0 45 -1t39.5 -8.5t38.5 -22.5q42 -43 42 -140q0 -98 -39 -137q-25 -29 -78 -31v-5q51 -5 76.5 -22.5t39.5 -62.5q9 -34 9 -86q0 -150 -89 -176q-27 -8 -64 -8h-476zM452 597h-167v-190h167q25 0 40 4q16 3 24 13q20 20 20 78q0 54 -17 74.5t-67 20.5z
M458 307h-173v-205h179q37 0 57 17q23 23 23 84q0 57 -17.5 80.5t-68.5 23.5z" />
    <glyph glyph-name="C" unicode="C" horiz-adv-x="696" 
d="M281 700h354v-113h-246q-35 0 -55 -3q-48 -11 -62 -88q-10 -50 -10 -146q0 -178 40 -218q14 -12 32 -15q17 -4 55 -4h246v-113h-354q-95 0 -133.5 27.5t-62.5 115.5q-19 72 -19 207q0 34 1 59t4.5 66t11.5 72t21.5 63t36 53t51.5 29q34 8 89 8z" />
    <glyph glyph-name="D" unicode="D" horiz-adv-x="827" 
d="M101 0v700h420q103 0 152 -28.5t72 -119.5q17 -73 17 -202q0 -29 -0.5 -46t-2 -49t-5 -53t-9.5 -50t-16.5 -48.5t-24 -40t-33.5 -33.5t-45 -20q-39 -10 -105 -10h-420zM433 594h-142v-488h142q63 0 90.5 19t38.5 81q8 56 8 144q0 87 -8 145q-11 62 -38.5 80.5t-90.5 18.5
z" />
    <glyph glyph-name="E" unicode="E" horiz-adv-x="695" 
d="M101 0v700h526v-113h-336v-175h329v-113h-329v-186h336v-113h-526z" />
    <glyph glyph-name="F" unicode="F" horiz-adv-x="671" 
d="M101 0v700h519v-113h-329v-189h322v-116h-322v-282h-190z" />
    <glyph glyph-name="G" unicode="G" horiz-adv-x="783" 
d="M278 700h415v-113h-309q-36 0 -55 -3q-48 -11 -62 -88q-9 -53 -9 -146q0 -94 9 -145q9 -52 30 -73q13 -12 32 -16q17 -4 55 -4h139v267h174v-379h-416q-95 0 -133.5 27.5t-62.5 115.5q-19 72 -19 207q0 34 1 59t4.5 66t11.5 72t21.5 63t36 53t51.5 29q34 8 86 8z" />
    <glyph glyph-name="H" unicode="H" horiz-adv-x="863" 
d="M101 0v700h190v-288h281v288h190v-700h-190v299h-281v-299h-190z" />
    <glyph glyph-name="I" unicode="I" horiz-adv-x="400" 
d="M105 0v700h190v-700h-190z" />
    <glyph glyph-name="J" unicode="J" horiz-adv-x="512" 
d="M232 264v436h190v-471q0 -75 -8 -123q-10 -64 -54 -85t-117 -21h-202v113h99q43 0 63 12.5t26 50.5q3 31 3 88z" />
    <glyph glyph-name="K" unicode="K" horiz-adv-x="802" 
d="M101 700h190v-332l307 332h170l-224 -243l237 -457h-216l-170 335l-104 -108v-227h-190v700z" />
    <glyph glyph-name="L" unicode="L" horiz-adv-x="646" 
d="M101 0v700h190v-587h322v-113h-512z" />
    <glyph glyph-name="M" unicode="M" horiz-adv-x="1114" 
d="M101 0v700h234q22 0 31 -6q7 -6 15 -26l166 -465q3 -7 6 -10q3 -4 9 -4t9 4l5 10l184 497h253v-700h-177v514q0 13 -10 13q-8 0 -13 -12l-179 -483q-8 -20 -15 -26q-9 -6 -31 -6h-145l-185 515q-4 12 -13 12q-10 0 -10 -13v-514h-134z" />
    <glyph glyph-name="N" unicode="N" horiz-adv-x="841" 
d="M101 0v700h174q20 0 29 -3q10 -5 17 -17l252 -427q7 -15 19 -15q9 0 9 15v447h139v-700h-174q-22 0 -30 4q-9 3 -16 16l-252 424q-5 9 -9 13q-6 2 -10 2q-9 0 -9 -15v-444h-139z" />
    <glyph glyph-name="O" unicode="O" horiz-adv-x="825" 
d="M281 704h263q94 0 134 -28.5t63 -116.5q18 -74 18 -209q0 -315 -126 -345q-31 -9 -89 -9h-263q-94 0 -133 28t-62 116q-20 75 -20 210q0 35 1 59.5t4 67t11.5 72.5t21.5 62.5t35.5 54t52.5 29.5q32 9 89 9zM441 601h-57q-38 0 -55 -4t-31 -16q-21 -23 -30 -75
q-10 -51 -10 -156t10 -155q9 -54 30 -75q11 -12 31 -17q17 -4 55 -4h57q63 0 86 20q20 22 31 76q9 53 9 155t-9 156q-12 60 -35 77.5t-82 17.5z" />
    <glyph glyph-name="P" unicode="P" horiz-adv-x="761" 
d="M101 0v700h405q61 0 97 -7q37 -7 62 -30t35.5 -58.5t14 -66t3.5 -70.5q0 -41 -3.5 -72t-14 -67t-35 -59.5t-62.5 -30.5q-42 -8 -97 -8h-216v-231h-189zM425 596h-135v-262h135q41 0 56 4q37 11 44 57q5 32 5 72q0 45 -4 70q-8 44 -45 55q-15 4 -56 4z" />
    <glyph glyph-name="Q" unicode="Q" horiz-adv-x="825" 
d="M511 -4l97 -148h-183l-98 148h-46q-94 0 -133 28t-62 116q-20 75 -20 210q0 35 1 59.5t4 67t11.5 72.5t21.5 62.5t35.5 54t52.5 29.5q32 9 89 9h263q95 0 133.5 -27.5t62.5 -115.5q19 -73 19 -211q0 -43 -1 -73t-8 -81t-19 -85t-37.5 -65t-60.5 -41q-31 -9 -89 -9h-33z
M441 601h-57q-38 0 -55 -4t-31 -16q-21 -23 -30 -75q-10 -51 -10 -156q0 -107 10 -157q10 -60 34 -78t82 -18h57q60 0 83 19t34 77q9 52 9 157q0 102 -9 156q-12 60 -35 77.5t-82 17.5z" />
    <glyph glyph-name="R" unicode="R" horiz-adv-x="787" 
d="M101 0v700h416q59 0 93 -7q29 -6 49.5 -22.5t32 -36.5t18 -48.5t8 -51t1.5 -52.5q0 -42 -4.5 -72.5t-16.5 -61t-38 -50t-65 -25.5l150 -273h-199l-135 252h-120v-252h-190zM424 596h-133v-242h133q43 0 58 4q36 10 44 54q5 30 5 67q0 27 -1 41.5t-9 34.5t-24 32
q-18 9 -73 9z" />
    <glyph glyph-name="S" unicode="S" horiz-adv-x="671" 
d="M241 700h365v-113h-282q-55 0 -55 -37q0 -14 12 -28q10 -11 37 -35l185 -158q38 -32 58 -51.5t40 -55.5t20 -73q0 -76 -49 -112.5t-128 -36.5h-379v113h295q55 0 55 39q0 17 -10 31q-8 11 -37 36l-188 159q-27 24 -48 45q-67 58 -67 132t49.5 109.5t126.5 35.5z" />
    <glyph glyph-name="T" unicode="T" horiz-adv-x="696" 
d="M38 587v113h620v-113h-215v-587h-190v587h-215z" />
    <glyph glyph-name="U" unicode="U" horiz-adv-x="822" 
d="M90 254v446h190v-443q0 -57 5 -89q6 -40 30.5 -52.5t71.5 -12.5h55q46 0 71.5 12.5t31.5 52.5q4 25 4 89v443h183v-446q0 -92 -11 -144q-8 -36 -23.5 -59.5t-40.5 -34.5t-50.5 -15t-62.5 -4h-265q-79 0 -120.5 22.5t-56.5 90.5q-12 50 -12 144z" />
    <glyph glyph-name="V" unicode="V" horiz-adv-x="757" 
d="M267 0l-234 700h204l166 -529q1 -7 5 -9q2 -2 8 -2q10 0 12 11l164 529h142l-215 -667q-8 -22 -17 -27.5t-33 -5.5h-202z" />
    <glyph glyph-name="W" unicode="W" horiz-adv-x="1151" 
d="M197 -3l-153 703h192l108 -534q1 -7 5 -9q2 -2 8 -2q11 0 13 11l116 534h210q22 0 31 -5.5t14 -26.5l100 -502q2 -11 13 -11t13 11l110 534h139l-145 -668q-4 -22 -14 -28.5t-33 -6.5h-219l-111 535q-2 8 -3 9q-2 1 -9 1t-8 -1q-2 -1 -4 -9l-112 -500q-4 -22 -14 -28
q-8 -7 -33 -7h-214z" />
    <glyph glyph-name="X" unicode="X" horiz-adv-x="750" 
d="M275 342l-237 358h216l150 -231l159 231h161l-237 -334l242 -366h-215l-157 240l-164 -240h-160z" />
    <glyph glyph-name="Y" unicode="Y" horiz-adv-x="730" 
d="M271 227l-250 473h206l159 -316q3 -10 13 -10t13 10l159 316h147l-248 -473v-227h-199v227z" />
    <glyph glyph-name="Z" unicode="Z" horiz-adv-x="711" 
d="M77 587v113h576v-80q0 -20 -3 -27q-3 -9 -16 -25l-321 -422q-13 -19 -13 -24q0 -9 15 -9h340v-113h-586v80q0 18 4 27q3 8 15 25l322 422q13 19 13 24q0 9 -15 9h-331z" />
    <glyph glyph-name="bracketleft" unicode="[" horiz-adv-x="503" 
d="M112 -224v1005h349v-86h-188v-833h188v-86h-349z" />
    <glyph glyph-name="backslash" unicode="\" horiz-adv-x="560" 
d="M5 781h148l402 -1005h-148z" />
    <glyph glyph-name="bracketright" unicode="]" horiz-adv-x="503" 
d="M42 781h349v-1005h-349v86h187v833h-187v86z" />
    <glyph glyph-name="asciicircum" unicode="^" horiz-adv-x="646" 
d="M603 354h-180l-109 202q-1 3 -2.5 6t-3 4.5t-1.5 2.5q-3 3 -7 3t-6 -3q-4 -4 -8 -13l-106 -202h-137l178 346h169q17 0 29 -5q9 -6 19 -25z" />
    <glyph glyph-name="underscore" unicode="_" horiz-adv-x="507" 
d="M506 -176h-504v125h504v-125z" />
    <glyph glyph-name="grave" unicode="`" 
d="M282 776l102 -156h-138l-139 156h175z" />
    <glyph glyph-name="a" unicode="a" horiz-adv-x="677" 
d="M89 461v99h353q91 0 125 -39.5t34 -132.5v-388h-400q-40 0 -67 5q-76 13 -76 163q0 30 2 50.5t8.5 45.5t23 41.5t41.5 25.5q19 6 68 8l223 7v26q0 21 -2 43q-6 29 -21 37.5t-47 8.5h-265zM424 92v174l-131 -5q-21 -2 -28 -4q-10 -3 -16 -10q-16 -16 -16 -70q0 -57 16 -73
q6 -8 16 -9q9 -3 28 -3h131z" />
    <glyph glyph-name="b" unicode="b" horiz-adv-x="689" 
d="M80 0v725h177v-165h195q73 0 110.5 -25.5t54.5 -93.5q14 -58 14 -161q0 -30 -0.5 -49t-3.5 -53t-10 -57t-18 -48.5t-30.5 -41.5t-44.5 -23q-30 -8 -72 -8h-372zM372 462h-115v-364h115q18 0 32 3q29 4 42 62q7 35 7 117t-7 117q-11 55 -42 63q-18 2 -32 2z" />
    <glyph glyph-name="c" unicode="c" horiz-adv-x="582" 
d="M237 560h298v-98h-218q-15 0 -31 -2q-12 -3 -23 -12q-12 -12 -20 -51q-7 -35 -7 -117t7 -117q8 -39 20 -51q11 -10 23 -11q12 -3 31 -3h218v-98h-298q-73 0 -110.5 25.5t-54.5 93.5q-15 55 -15 161q0 34 1 59.5t7 65t17 66.5t32 50.5t51 31.5q27 7 72 7z" />
    <glyph glyph-name="d" unicode="d" horiz-adv-x="689" 
d="M432 560v165h177v-725h-372q-73 0 -110.5 25.5t-54.5 93.5q-15 55 -15 161q0 34 1 59.5t7 65t17 66.5t32 50.5t51 31.5q27 7 72 7h195zM432 98v364h-115q-15 0 -31 -2q-12 -3 -23 -12q-12 -12 -20 -51q-7 -35 -7 -117t7 -117q8 -39 20 -51q11 -10 23 -11q12 -3 31 -3h115
z" />
    <glyph glyph-name="e" unicode="e" horiz-adv-x="660" 
d="M237 560h195q102 0 134.5 -40.5t36.5 -141.5q2 -54 2 -92v-56h-371q2 -55 8 -78q11 -47 41 -51q12 -3 31 -3h266v-98h-343q-73 0 -110 25.5t-55 92.5q-14 56 -14 163q0 38 0.5 60.5t6.5 63.5t16 66.5t31.5 49t52.5 31.5q30 8 72 8zM356 471h-43q-15 0 -31 -2
q-34 -7 -42 -59q-5 -30 -7 -96h205q-2 68 -4 93q-4 54 -42 62q-18 2 -36 2z" />
    <glyph glyph-name="f" unicode="f" horiz-adv-x="498" 
d="M258 725h218v-99h-180q-12 0 -12 -9q0 -5 6 -25l24 -71h162v-97h-164v-424h-177v424h-104v97h104v52q0 28 1.5 46t8 40.5t21 37t37.5 22.5q23 6 55 6z" />
    <glyph glyph-name="g" unicode="g" horiz-adv-x="682" 
d="M237 560h367v-531q0 -37 -1 -56.5t-5 -46.5t-14 -41.5t-26 -28.5t-42.5 -20t-62.5 -6h-356v98h265q30 0 44 9.5t19 36.5q3 22 3 71v6h-193q-74 0 -113 25t-54 92q-12 51 -12 138q0 218 109 246q30 8 72 8zM427 149v313h-113q-14 0 -32 -2q-39 -9 -45 -66q-5 -42 -5 -88
q0 -50 5 -90q7 -60 45 -64q14 -3 32 -3h113z" />
    <glyph glyph-name="h" unicode="h" horiz-adv-x="707" 
d="M80 0v725h176v-165h214q92 0 125.5 -38.5t33.5 -132.5v-389h-177v370q0 19 -2 43q-6 29 -21.5 38t-46.5 9h-125v-460h-177z" />
    <glyph glyph-name="i" unicode="i" horiz-adv-x="340" 
d="M79 624v91h183v-91h-183zM82 0v560h177v-560h-177z" />
    <glyph glyph-name="j" unicode="j" horiz-adv-x="340" 
d="M79 624v91h183v-91h-183zM82 -2v562h177v-574q0 -60 -14.5 -94.5t-61.5 -53.5q-27 -9 -75 -9h-122v96h27q20 0 29.5 1t20 9t16.5 24q3 13 3 39z" />
    <glyph glyph-name="k" unicode="k" horiz-adv-x="672" 
d="M467 367l184 -367h-190l-126 259l-78 -91v-168h-177v725h177v-412l235 247h153z" />
    <glyph glyph-name="l" unicode="l" horiz-adv-x="340" 
d="M82 0v725h177v-725h-177z" />
    <glyph glyph-name="m" unicode="m" horiz-adv-x="1042" 
d="M80 0v560h726q92 0 125.5 -38.5t33.5 -132.5v-389h-178v370q0 19 -2 43q-6 29 -21 38t-46 9h-112v-460h-169v460h-180v-460h-177z" />
    <glyph glyph-name="n" unicode="n" horiz-adv-x="707" 
d="M80 0v560h390q92 0 125.5 -38.5t33.5 -132.5v-389h-177v370q0 19 -2 43q-6 29 -21.5 38t-46.5 9h-125v-460h-177z" />
    <glyph glyph-name="o" unicode="o" horiz-adv-x="686" 
d="M251 565h184q81 0 121 -26.5t59 -98.5q13 -63 13 -161q0 -39 -1 -63t-6.5 -64t-16.5 -65.5t-33.5 -49.5t-54.5 -33t-81 -9h-184q-77 0 -121 27.5t-58 97.5q-14 54 -14 160q0 188 56 244q44 41 137 41zM368 473h-50q-38 0 -53.5 -15.5t-21.5 -52.5q-3 -15 -5 -51
q-2 -42 -2 -74q0 -87 7 -123q10 -63 43 -67q12 -3 32 -3h50q19 0 32 3q31 4 44 66q6 39 6 123t-6 126q-4 19 -9 33q-11 22 -25.5 28.5t-41.5 6.5z" />
    <glyph glyph-name="p" unicode="p" horiz-adv-x="689" 
d="M80 -170v730h372q73 0 110.5 -25.5t54.5 -93.5q14 -58 14 -161q0 -30 -0.5 -49t-3.5 -53t-10 -57t-18 -48.5t-30.5 -41.5t-44.5 -23q-30 -8 -72 -8h-195v-170h-177zM372 462h-115v-364h115q18 0 32 3q29 4 42 62q7 35 7 117t-7 117q-11 55 -42 63q-18 2 -32 2z" />
    <glyph glyph-name="q" unicode="q" horiz-adv-x="689" 
d="M237 560h372v-730h-177v170h-195q-73 0 -110.5 25.5t-54.5 93.5q-15 55 -15 161q0 34 1 59.5t7 65t17 66.5t32 50.5t51 31.5q27 7 72 7zM432 98v364h-115q-15 0 -31 -2q-12 -3 -23 -12q-12 -12 -20 -51q-7 -35 -7 -117t7 -117q8 -39 20 -51q11 -10 23 -11q12 -3 31 -3
h115z" />
    <glyph glyph-name="r" unicode="r" horiz-adv-x="493" 
d="M80 0v560h177v-59q0 -13 9 -13q7 0 21 7l117 60q14 8 30 8h27v-168h-118q-26 0 -38 -1.5t-25 -7.5t-18 -20.5t-5 -39.5v-326h-177z" />
    <glyph glyph-name="s" unicode="s" horiz-adv-x="575" 
d="M201 560h313v-99h-225q-37 0 -37 -31q0 -13 7 -21q8 -11 22 -21l159 -122q31 -24 48 -39.5t31.5 -43t14.5 -58.5q0 -63 -41 -94t-106 -31h-334v98h246q21 0 30 10q9 9 9 24q0 13 -7 23q-7 9 -24 21l-159 122q-31 24 -47 39t-30.5 42t-14.5 58q0 62 40.5 92.5t104.5 30.5z
" />
    <glyph glyph-name="t" unicode="t" horiz-adv-x="492" 
d="M31 462v98h125v130h177v-130h143v-98h-143v-462h-177v462h-125z" />
    <glyph glyph-name="u" unicode="u" horiz-adv-x="707" 
d="M627 560v-560h-390q-91 0 -125 39.5t-34 131.5v389h177v-371q0 -27 3 -43q4 -46 67 -46h125v460h177z" />
    <glyph glyph-name="v" unicode="v" horiz-adv-x="620" 
d="M204 -1l-186 561h191l124 -412q2 -5 4 -6l139 418h128l-170 -534q-6 -16 -15 -21.5t-27 -5.5h-188z" />
    <glyph glyph-name="w" unicode="w" horiz-adv-x="999" 
d="M162 -1l-130 561h184l90 -414q1 -6 3 -8q15 1 16 8l97 414h191q29 0 36 -28l95 -387q1 -6 4 -7q13 -1 15 6l84 416h122l-115 -534q-3 -16 -11.5 -21.5t-26.5 -5.5h-205l-101 409q-1 5 -3 7q-15 -1 -16 -7l-90 -382q-4 -16 -12.5 -21.5t-26.5 -5.5h-200z" />
    <glyph glyph-name="x" unicode="x" horiz-adv-x="632" 
d="M221 275l-191 285h195l116 -176l121 176h150l-190 -265l197 -295h-195l-123 187l-128 -187h-150z" />
    <glyph glyph-name="y" unicode="y" horiz-adv-x="625" 
d="M250 -8l-234 568h190l127 -345q3 -11 6 -12q1 -3 6 -3q7 4 12 15l117 345h135l-263 -736h-134l38 105q5 15 6 20q2 10 2 13q0 12 -8 30z" />
    <glyph glyph-name="z" unicode="z" horiz-adv-x="602" 
d="M56 461v99h499v-75q0 -13 -2 -23q-3 -7 -16 -23l-257 -315q-5 -6 -6 -10q-3 -4 -3 -8q0 -8 13 -8h275v-98h-506v75q0 17 3 24t16 23l257 314q3 4 7 10q2 6 2 8q0 7 -13 7h-269z" />
    <glyph glyph-name="braceleft" unicode="{" horiz-adv-x="504" 
d="M184 781h260v-86h-168q-37 0 -37 -35q0 -10 3 -24q1 -10 7 -32l62 -210q12 -37 19 -67q5 -28 5 -49q0 -20 -5 -47q-7 -28 -19 -68l-62 -210q-6 -22 -7 -32q-3 -13 -3 -24q0 -35 37 -35h168v-86h-260q-110 0 -110 101q0 25 6 51q4 27 15 63l65 220q3 7 10 35q3 17 3 32
q0 16 -3 33q-6 22 -10 35l-65 220q-11 36 -15 63q-6 25 -6 51q0 101 110 101z" />
    <glyph glyph-name="bar" unicode="|" horiz-adv-x="407" 
d="M131 -224v1005h144v-1005h-144z" />
    <glyph glyph-name="braceright" unicode="}" horiz-adv-x="505" 
d="M61 781h259q55 0 83 -23.5t28 -77.5q0 -43 -21 -114l-65 -220q-6 -19 -9 -34q-4 -15 -4 -33q0 -17 4 -32q3 -17 9 -36l65 -220q21 -71 21 -114q0 -54 -28 -77.5t-83 -23.5h-259v86h168q37 0 37 35q0 6 -2 24q-2 10 -8 32l-62 210q-14 45 -18 68q-6 24 -6 48q0 23 6 48
q4 23 18 67l62 210q6 22 8 32q2 18 2 24q0 35 -37 35h-168v86z" />
    <glyph glyph-name="asciitilde" unicode="~" horiz-adv-x="731" 
d="M190 198h-114v165q0 144 108 144q42 0 89 -22q5 -3 18.5 -9t20.5 -10l143 -79q27 -14 37 -18q12 -5 21 -5q18 0 23 10t5 30v104h114v-165q0 -145 -108 -145q-35 0 -58 10q-5 2 -30 13l-40 19l-142 78q-27 14 -37 18q-13 5 -22 5q-28 0 -28 -40v-103z" />
    <glyph glyph-name="asciitilde" unicode="&#x223c;" horiz-adv-x="731" 
d="M190 198h-114v165q0 144 108 144q42 0 89 -22q5 -3 18.5 -9t20.5 -10l143 -79q27 -14 37 -18q12 -5 21 -5q18 0 23 10t5 30v104h114v-165q0 -145 -108 -145q-35 0 -58 10q-5 2 -30 13l-40 19l-142 78q-27 14 -37 18q-13 5 -22 5q-28 0 -28 -40v-103z" />
    <glyph glyph-name="space_" unicode="&#xa0;" horiz-adv-x="25000" 
 />
    <glyph glyph-name="exclamdown" unicode="&#xa1;" horiz-adv-x="349" 
d="M253 700v-136h-158v136h158zM242 474l21 -474h-177l21 474h135z" />
    <glyph glyph-name="cent" unicode="&#xa2;" horiz-adv-x="593" 
d="M281 -35h-106l35 134q-30 1 -52 11q-96 35 -96 241q0 218 107 246q30 8 74 8h96l34 129h106l-34 -129h89v-103h-205q-16 0 -34 -2q-13 -3 -24 -14q-28 -28 -28 -135t28 -135q16 -16 58 -16h205v-102h-219z" />
    <glyph glyph-name="sterling" unicode="&#xa3;" horiz-adv-x="733" 
d="M46 298v102h122l17 95q13 73 25 110q8 27 21 45.5t25.5 28t35 14.5t39 6t47.5 1h279v-110h-196q-39 0 -56 -9.5t-27 -42.5q-4 -14 -14 -62l-13 -76h298v-102h-317l-33 -188h359v-110h-560l52 298h-104z" />
    <glyph glyph-name="yen" unicode="&#xa5;" horiz-adv-x="753" 
d="M285 211h-210v102h176l-213 387h199l159 -298q5 -11 9 -14q3 -3 7 -3q6 0 9 3q2 2 9 14l157 298h129l-210 -387h170v-102h-203v-211h-188v211z" />
    <glyph glyph-name="section" unicode="&#xa7;" horiz-adv-x="765" 
d="M564 0h-491v98h175q30 0 30 25q0 10 -4 19q-4 10 -19 38l-157 289q-38 72 -38 116q0 61 39 88t102 27h485v-98h-169q-30 0 -30 -25q0 -7 5 -19q4 -10 19 -38l156 -289q39 -69 39 -116q0 -115 -142 -115zM431 113q0 -1 -2 -15h77q47 0 47 36q0 14 -7 29l-23 46l-164 309
q-11 20 -17 37q-7 15 -7 32q0 1 2 15h-78q-47 0 -47 -36q0 -14 7 -28l23 -47l165 -309q24 -46 24 -69z" />
    <glyph glyph-name="dieresis" unicode="&#xa8;" 
d="M72 624v117h137v-117h-137zM291 624v117h137v-117h-137z" />
    <glyph glyph-name="copyright" unicode="&#xa9;" horiz-adv-x="887" 
d="M340 721h207q108 0 163.5 -34.5t89.5 -129.5q26 -75 26 -207q0 -226 -86 -312q-59 -59 -193 -59h-207q-108 0 -163 34.5t-89 129.5q-27 72 -27 207q0 225 87 312q59 59 192 59zM540 662h-193q-88 0 -129.5 -28.5t-63.5 -110.5q-18 -67 -18 -173q0 -205 66 -271
q41 -41 145 -41h193q89 0 130 28.5t63 110.5q18 68 18 173q0 205 -66 271q-26 26 -60.5 33.5t-84.5 7.5zM391 551h209v-80h-145q-28 0 -38.5 -8.5t-15.5 -35.5q-4 -23 -4 -76q0 -90 18 -108q12 -12 40 -12h145v-80h-209q-36 0 -54 7q-48 15 -63 81q-9 41 -9 112q0 33 1.5 55
t8 55t22.5 54.5t42 29.5q18 6 52 6z" />
    <glyph glyph-name="ordfeminine" unicode="&#xaa;" horiz-adv-x="464" 
d="M69 628v72h237q64 0 87 -27t23 -92v-256h-270q-59 0 -78.5 25.5t-19.5 89.5t19 88t78 27l145 5v11q0 33 -8 46q-8 11 -35 11h-178zM290 390v112l-74 -4q-28 -3 -36.5 -12t-8.5 -40q0 -16 3 -28q1 -11 7 -19q4 -4 13 -6q8 -3 22 -3h74z" />
    <glyph glyph-name="guillemotleft" unicode="&#xab;" horiz-adv-x="631" 
d="M50 315l121 164h159l-123 -166q-2 -4 -4.5 -7.5l-4 -5.5l-3 -4t-1.5 -3q-3 -5 -3 -7t3 -7q0 -1 1.5 -3l3 -4l4 -5.5t4.5 -7.5l125 -172h-162l-120 164q-9 13 -12 19t-3 13t3 14q3 6 12 18zM314 315l121 164h159l-122 -166q-14 -19 -14 -20q-3 -5 -3 -7t3 -7q0 -1 14 -20
l124 -172h-162l-120 164q-9 13 -12 19t-3 13t3 14q3 6 12 18z" />
    <glyph glyph-name="dash" unicode="&#xad;" horiz-adv-x="0" 
 />
    <glyph glyph-name="registered" unicode="&#xae;" horiz-adv-x="568" 
d="M216 705h137q68 0 102.5 -20t54.5 -79q14 -45 14 -127q0 -190 -98 -216q-28 -9 -73 -9h-137q-68 0 -103 20.5t-54 79.5q-14 45 -14 124q0 55 6.5 92.5t24 70t52.5 48.5t88 16zM349 662h-129q-31 0 -51 -5q-71 -24 -71 -179q0 -161 71 -177q20 -5 51 -5h129q52 0 75 18
t36 67q10 39 10 98q0 162 -70 178q-22 5 -51 5zM362 449l45 -87h-82l-37 76h-36v-76h-73v236h157q14 0 30 -2q36 -10 36 -72q0 -67 -40 -75zM289 554h-37v-71h37q16 0 20 1q6 2 8 5q6 6 6 30q0 23 -6 29q-2 3 -8 5q-4 1 -20 1z" />
    <glyph glyph-name="macron" unicode="&#xaf;" 
d="M65 632v83h370v-83h-370z" />
    <glyph glyph-name="degree" unicode="&#xb0;" horiz-adv-x="498" 
d="M171 705h156q31 0 56 -5q76 -20 76 -179q0 -163 -77 -179q-25 -5 -55 -5h-156q-56 0 -81.5 16t-39.5 66q-11 41 -11 102q0 157 79 179q25 5 53 5zM263 630h-27q-17 0 -24 -1q-9 -1 -17 -9q-20 -23 -20 -99q0 -82 20 -100q11 -10 41 -10h27q30 0 41 10t16 40q4 25 4 60
q0 76 -20 99q-8 8 -17 9q-7 1 -24 1z" />
    <glyph glyph-name="plusminus" unicode="&#xb1;" horiz-adv-x="730" 
d="M295 524v168h140v-168h199v-112h-199v-168h-140v168h-199v112h199zM96 45v117h538v-117h-538z" />
    <glyph glyph-name="acute" unicode="&#xb4;" 
d="M246 620h-138l102 156h175z" />
    <glyph glyph-name="paragraph" unicode="&#xb6;" horiz-adv-x="834" 
d="M252 700h481v-700h-117v614h-90v-614h-117v186h-157q-79 0 -116 34q-54 57 -54 219q0 96 14 149q18 64 54.5 88t101.5 24z" />
    <glyph glyph-name="periodcentered" unicode="&#xb7;" horiz-adv-x="316" 
d="M69 200v161h178v-161h-178z" />
    <glyph glyph-name="cedilla" unicode="&#xb8;" 
d="M154 -216l118 216h118l-66 -216h-170z" />
    <glyph glyph-name="ordmasculine" unicode="&#xba;" horiz-adv-x="484" 
d="M177 704h131q37 0 63 -11t39.5 -27t21.5 -43.5t9.5 -50.5t1.5 -59t-2 -61t-10 -51.5t-22.5 -42t-39.5 -26t-61 -10.5h-131q-36 0 -62 11t-40 27t-22 43t-10 51t-2 59q0 32 2 55t9.5 52t25 49t44.5 29q22 6 55 6zM258 635h-32q-26 0 -36.5 -8.5t-15.5 -34.5q-4 -20 -4 -79
q0 -58 4 -78q5 -23 13 -33q13 -10 39 -10h32q26 0 37 8.5t16 33.5q4 20 4 79q0 44 -4 80q-3 13 -6 20q-6 10 -8 12q-13 10 -39 10z" />
    <glyph glyph-name="guillemotright" unicode="&#xbb;" horiz-adv-x="631" 
d="M581 251l-121 -164h-159l123 166q3 5 6 9t5 7t3 4q2 6 2 7t-2 7q-1 1 -3 4t-5 7t-6 9l-125 172h162l120 -164q9 -12 12 -18q3 -8 3 -14q0 -7 -3 -13t-12 -19zM317 251l-121 -164h-159l123 166q3 5 6 9t5 7t3 4q2 6 2 7t-2 7q-1 1 -3 4t-5 7t-6 9l-125 172h162l120 -164
q9 -12 12 -18q3 -8 3 -14q0 -7 -3 -13t-12 -19z" />
    <glyph glyph-name="questiondown" unicode="&#xbf;" horiz-adv-x="557" 
d="M389 700v-136h-159v136h159zM523 110v-110h-362q-85 0 -113 31q-29 32 -29 74q0 38 22 76q23 43 61 99l131 194h151l-122 -231l-36 -66q-13 -22 -13 -37q0 -30 48 -30h262z" />
    <glyph glyph-name="Agrave" unicode="&#xc0;" horiz-adv-x="784" 
d="M29 0l255 700h198q25 0 34 -6q8 -6 15 -27l225 -667h-200l-41 130h-302l-46 -130h-138zM358 545l-106 -302h227l-95 302q-1 6 -4 9q-4 2 -9 2q-6 0 -8 -2q-4 -2 -5 -9zM369 920l102 -156h-138l-139 156h175z" />
    <glyph glyph-name="Aacute" unicode="&#xc1;" horiz-adv-x="784" 
d="M29 0l255 700h198q25 0 34 -6q8 -6 15 -27l225 -667h-200l-41 130h-302l-46 -130h-138zM358 545l-106 -302h227l-95 302q-1 6 -4 9q-4 2 -9 2q-6 0 -8 -2q-4 -2 -5 -9zM471 764h-138l102 156h175z" />
    <glyph glyph-name="Acircumflex" unicode="&#xc2;" horiz-adv-x="784" 
d="M29 0l255 700h198q25 0 34 -6q8 -6 15 -27l225 -667h-200l-41 130h-302l-46 -130h-138zM358 545l-106 -302h227l-95 302q-1 6 -4 9q-4 2 -9 2q-6 0 -8 -2q-4 -2 -5 -9zM283 764h-122l141 156h166q17 0 26 -4q6 -3 19 -16l126 -136h-180l-66 72q-9 10 -13 13t-9 3
q-10 0 -21 -16z" />
    <glyph glyph-name="Atilde" unicode="&#xc3;" horiz-adv-x="784" 
d="M29 0l255 700h198q25 0 34 -6q8 -6 15 -27l225 -667h-200l-41 130h-302l-46 -130h-138zM358 545l-106 -302h227l-95 302q-1 6 -4 9q-4 2 -9 2q-6 0 -8 -2q-4 -2 -5 -9zM278 762h-73v95q0 82 74 82h5q18 0 37 -6q6 -2 20 -7.5t23 -9.5l100 -38q21 -10 30 -12q7 -3 14 -3
q6 0 10 4q4 3 4 15v57h73v-95q0 -82 -74 -82h-5q-18 0 -36 6q-20 6 -44 16l-100 38q-14 7 -29 13q-9 3 -15 3t-10 -3q-4 -4 -4 -17v-56z" />
    <glyph glyph-name="Adieresis" unicode="&#xc4;" horiz-adv-x="784" 
d="M29 0l255 700h198q25 0 34 -6q8 -6 15 -27l225 -667h-200l-41 130h-302l-46 -130h-138zM358 545l-106 -302h227l-95 302q-1 6 -4 9q-4 2 -9 2q-6 0 -8 -2q-4 -2 -5 -9zM222 768v117h137v-117h-137zM441 768v117h137v-117h-137z" />
    <glyph glyph-name="Aring" unicode="&#xc5;" horiz-adv-x="783" 
d="M166 0h-138l228 624q-36 10 -47.5 38t-11.5 71q0 64 25.5 88t85.5 24h181q63 0 86 -24t23 -88q0 -43 -10.5 -69t-44.5 -38l212 -626h-200l-41 130h-302zM315 733q0 -18 4 -30q3 -15 10 -22q11 -9 38 -9h62q28 0 39 9q13 13 13 52q0 35 -10.5 48t-41.5 13h-62
q-31 0 -41.5 -13.5t-10.5 -47.5zM356 541l-105 -298h227l-94 298q-1 3 -4 10q-4 2 -10 2q-7 0 -9 -2q0 -1 -1 -2.5t-2 -3.5z" />
    <glyph glyph-name="AE" unicode="&#xc6;" horiz-adv-x="1126" 
d="M5 0l423 700h630v-113h-336v-175h329v-113h-329v-186h336v-113h-526v130h-288l-77 -130h-162zM506 575l-196 -332h222v342h-12q-8 0 -14 -10z" />
    <glyph glyph-name="Ccedilla" unicode="&#xc7;" horiz-adv-x="696" 
d="M635 0h-167l-66 -216h-170l118 216h-69q-95 0 -133.5 27.5t-62.5 115.5q-19 72 -19 207q0 34 1 59t4.5 66t11.5 72t21.5 63t36 53t51.5 29q34 8 89 8h354v-113h-246q-35 0 -55 -3q-48 -11 -62 -88q-10 -50 -10 -146q0 -178 40 -218q14 -12 32 -15q17 -4 55 -4h246v-113z
" />
    <glyph glyph-name="Egrave" unicode="&#xc8;" horiz-adv-x="695" 
d="M101 0v700h526v-113h-336v-175h329v-113h-329v-186h336v-113h-526zM355 920l102 -156h-138l-139 156h175z" />
    <glyph glyph-name="Eacute" unicode="&#xc9;" horiz-adv-x="695" 
d="M101 0v700h526v-113h-336v-175h329v-113h-329v-186h336v-113h-526zM423 764h-138l102 156h175z" />
    <glyph glyph-name="Ecircumflex" unicode="&#xca;" horiz-adv-x="695" 
d="M101 0v700h526v-113h-336v-175h329v-113h-329v-186h336v-113h-526zM254 764h-122l141 156h166q17 0 26 -4q6 -3 19 -16l126 -136h-180l-66 72q-9 10 -13 13q-5 3 -9 3q-10 0 -21 -16z" />
    <glyph glyph-name="Edieresis" unicode="&#xcb;" horiz-adv-x="695" 
d="M101 0v700h526v-113h-336v-175h329v-113h-329v-186h336v-113h-526zM193 768v117h137v-117h-137zM412 768v117h137v-117h-137z" />
    <glyph glyph-name="Igrave" unicode="&#xcc;" horiz-adv-x="400" 
d="M105 0v700h190v-700h-190zM167 920l102 -156h-138l-139 156h175z" />
    <glyph glyph-name="Iacute" unicode="&#xcd;" horiz-adv-x="400" 
d="M105 0v700h190v-700h-190zM269 764h-138l102 156h175z" />
    <glyph glyph-name="Icircumflex" unicode="&#xce;" horiz-adv-x="400" 
d="M105 0v700h190v-700h-190zM83 764h-122l141 156h166q17 0 26 -4q6 -3 19 -16l126 -136h-180l-66 72q-9 10 -13 13t-9 3q-10 0 -21 -16z" />
    <glyph glyph-name="Idieresis" unicode="&#xcf;" horiz-adv-x="400" 
d="M105 0v700h190v-700h-190zM22 768v117h137v-117h-137zM241 768v117h137v-117h-137z" />
    <glyph glyph-name="Eth" unicode="&#xd0;" horiz-adv-x="834" 
d="M11 307v98h97v295h420q103 0 152 -28.5t72 -119.5q17 -73 17 -202q0 -29 -0.5 -46t-2 -49t-5 -53t-9.5 -50t-16.5 -48.5t-24 -40t-33.5 -33.5t-45 -20q-39 -10 -105 -10h-420v307h-97zM440 594h-142v-189h148v-98h-148v-201h142q63 0 90.5 19t38.5 81q8 56 8 144
q0 87 -8 145q-11 62 -38.5 80.5t-90.5 18.5z" />
    <glyph glyph-name="Ntilde" unicode="&#xd1;" horiz-adv-x="841" 
d="M101 0v700h174q20 0 29 -3q10 -5 17 -17l252 -427q7 -15 19 -15q9 0 9 15v447h139v-700h-174q-22 0 -30 4q-9 3 -16 16l-252 424q-5 9 -9 13q-6 2 -10 2q-9 0 -9 -15v-444h-139zM311 760h-73v95q0 82 74 82h5q17 0 37 -6q6 -2 20 -7.5t23 -9.5l100 -38q21 -10 30 -12
q8 -3 14 -3t10 4q4 3 4 15v57h73v-95q0 -82 -74 -82h-5q-18 0 -36 6q-20 6 -44 16l-100 38q-14 7 -29 13q-9 3 -15 3q-5 0 -10 -3q-4 -4 -4 -17v-56z" />
    <glyph glyph-name="Ograve" unicode="&#xd2;" horiz-adv-x="825" 
d="M281 704h263q94 0 134 -28.5t63 -116.5q18 -74 18 -209q0 -315 -126 -345q-31 -9 -89 -9h-263q-94 0 -133 28t-62 116q-20 75 -20 210q0 35 1 59.5t4 67t11.5 72.5t21.5 62.5t35.5 54t52.5 29.5q32 9 89 9zM441 601h-57q-38 0 -55 -4t-31 -16q-21 -23 -30 -75
q-10 -51 -10 -156t10 -155q9 -54 30 -75q11 -12 31 -17q17 -4 55 -4h57q63 0 86 20q20 22 31 76q9 53 9 155t-9 156q-12 60 -35 77.5t-82 17.5zM397 923l102 -156h-138l-139 156h175z" />
    <glyph glyph-name="Oacute" unicode="&#xd3;" horiz-adv-x="825" 
d="M281 704h263q94 0 134 -28.5t63 -116.5q18 -74 18 -209q0 -315 -126 -345q-31 -9 -89 -9h-263q-94 0 -133 28t-62 116q-20 75 -20 210q0 35 1 59.5t4 67t11.5 72.5t21.5 62.5t35.5 54t52.5 29.5q32 9 89 9zM441 601h-57q-38 0 -55 -4t-31 -16q-21 -23 -30 -75
q-10 -51 -10 -156t10 -155q9 -54 30 -75q11 -12 31 -17q17 -4 55 -4h57q63 0 86 20q20 22 31 76q9 53 9 155t-9 156q-12 60 -35 77.5t-82 17.5zM465 767h-138l102 156h175z" />
    <glyph glyph-name="Ocircumflex" unicode="&#xd4;" horiz-adv-x="825" 
d="M281 704h263q94 0 134 -28.5t63 -116.5q18 -74 18 -209q0 -315 -126 -345q-31 -9 -89 -9h-263q-94 0 -133 28t-62 116q-20 75 -20 210q0 35 1 59.5t4 67t11.5 72.5t21.5 62.5t35.5 54t52.5 29.5q32 9 89 9zM441 601h-57q-38 0 -55 -4t-31 -16q-21 -23 -30 -75
q-10 -51 -10 -156t10 -155q9 -54 30 -75q11 -12 31 -17q17 -4 55 -4h57q63 0 86 20q20 22 31 76q9 53 9 155t-9 156q-12 60 -35 77.5t-82 17.5zM296 767h-122l141 156h166q17 0 26 -4q6 -3 19 -16l126 -136h-180l-66 72q-9 10 -13 13q-5 3 -9 3q-10 0 -21 -16z" />
    <glyph glyph-name="Otilde" unicode="&#xd5;" horiz-adv-x="825" 
d="M281 704h263q94 0 134 -28.5t63 -116.5q18 -74 18 -209q0 -315 -126 -345q-31 -9 -89 -9h-263q-94 0 -133 28t-62 116q-20 75 -20 210q0 35 1 59.5t4 67t11.5 72.5t21.5 62.5t35.5 54t52.5 29.5q32 9 89 9zM441 601h-57q-38 0 -55 -4t-31 -16q-21 -23 -30 -75
q-10 -51 -10 -156t10 -155q9 -54 30 -75q11 -12 31 -17q17 -4 55 -4h57q63 0 86 20q20 22 31 76q9 53 9 155t-9 156q-12 60 -35 77.5t-82 17.5zM291 765h-73v95q0 82 74 82h5q17 0 37 -6q6 -2 20 -7.5t23 -9.5l100 -38q21 -11 30 -12q8 -3 14 -3t10 4q4 3 4 15v57h73v-95
q0 -82 -74 -82h-5q-18 0 -36 6q-20 6 -44 16l-100 38q-14 7 -29 13q-9 3 -15 3q-5 0 -10 -3q-4 -4 -4 -17v-56z" />
    <glyph glyph-name="Odieresis" unicode="&#xd6;" horiz-adv-x="825" 
d="M281 704h263q94 0 134 -28.5t63 -116.5q18 -74 18 -209q0 -315 -126 -345q-31 -9 -89 -9h-263q-94 0 -133 28t-62 116q-20 75 -20 210q0 35 1 59.5t4 67t11.5 72.5t21.5 62.5t35.5 54t52.5 29.5q32 9 89 9zM441 601h-57q-38 0 -55 -4t-31 -16q-21 -23 -30 -75
q-10 -51 -10 -156t10 -155q9 -54 30 -75q11 -12 31 -17q17 -4 55 -4h57q63 0 86 20q20 22 31 76q9 53 9 155t-9 156q-12 60 -35 77.5t-82 17.5zM235 771v117h137v-117h-137zM454 771v117h137v-117h-137z" />
    <glyph glyph-name="multiply" unicode="&#xd7;" horiz-adv-x="693" 
d="M252 352l-193 249h173l126 -161l125 161h151l-192 -244l193 -249h-173l-126 162l-126 -162h-151z" />
    <glyph glyph-name="Oslash" unicode="&#xd8;" horiz-adv-x="825" 
d="M246 -67h-119l40 80q-101 46 -101 337q0 35 1 59.5t4 67t11.5 72.5t21.5 62.5t35.5 54t52.5 29.5q32 9 89 9h266l32 63h118l-40 -79q102 -43 102 -338q0 -37 -0.5 -60t-4 -66t-11.5 -72.5t-21 -62.5t-35.5 -54t-52.5 -30q-33 -9 -90 -9h-266zM448 603h-71
q-60 0 -83.5 -17.5t-34.5 -78.5q-9 -54 -9 -157q0 -145 18 -194l228 444q-16 3 -48 3zM377 97h71q39 0 56 4q20 5 31 17q21 20 32 75q9 54 9 157q0 77 -4 120q-4 46 -15 75l-228 -445q24 -3 48 -3z" />
    <glyph glyph-name="Ugrave" unicode="&#xd9;" horiz-adv-x="822" 
d="M90 254v446h190v-443q0 -57 5 -89q6 -40 30.5 -52.5t71.5 -12.5h55q46 0 71.5 12.5t31.5 52.5q4 25 4 89v443h183v-446q0 -92 -11 -144q-8 -36 -23.5 -59.5t-40.5 -34.5t-50.5 -15t-62.5 -4h-265q-79 0 -120.5 22.5t-56.5 90.5q-12 50 -12 144zM390 918l102 -156h-138
l-139 156h175z" />
    <glyph glyph-name="Uacute" unicode="&#xda;" horiz-adv-x="822" 
d="M90 254v446h190v-443q0 -57 5 -89q6 -40 30.5 -52.5t71.5 -12.5h55q46 0 71.5 12.5t31.5 52.5q4 25 4 89v443h183v-446q0 -92 -11 -144q-8 -36 -23.5 -59.5t-40.5 -34.5t-50.5 -15t-62.5 -4h-265q-79 0 -120.5 22.5t-56.5 90.5q-12 50 -12 144zM474 762h-138l102 156h175
z" />
    <glyph glyph-name="Ucircumflex" unicode="&#xdb;" horiz-adv-x="822" 
d="M90 254v446h190v-443q0 -57 5 -89q6 -40 30.5 -52.5t71.5 -12.5h55q46 0 71.5 12.5t31.5 52.5q4 25 4 89v443h183v-446q0 -92 -11 -144q-8 -36 -23.5 -59.5t-40.5 -34.5t-50.5 -15t-62.5 -4h-265q-79 0 -120.5 22.5t-56.5 90.5q-12 50 -12 144zM305 762h-122l141 156h166
q17 0 26 -4q6 -3 19 -16l126 -136h-180l-66 72q-9 10 -13 13t-9 3q-10 0 -21 -16z" />
    <glyph glyph-name="Udieresis" unicode="&#xdc;" horiz-adv-x="822" 
d="M90 254v446h190v-443q0 -57 5 -89q6 -40 30.5 -52.5t71.5 -12.5h55q46 0 71.5 12.5t31.5 52.5q4 25 4 89v443h183v-446q0 -92 -11 -144q-8 -36 -23.5 -59.5t-40.5 -34.5t-50.5 -15t-62.5 -4h-265q-79 0 -120.5 22.5t-56.5 90.5q-12 50 -12 144zM236 766v117h137v-117
h-137zM455 766v117h137v-117h-137z" />
    <glyph glyph-name="Yacute" unicode="&#xdd;" horiz-adv-x="730" 
d="M271 227l-250 473h206l159 -316q3 -10 13 -10t13 10l159 316h147l-248 -473v-227h-199v227zM445 762h-138l102 156h175z" />
    <glyph glyph-name="Thorn" unicode="&#xde;" horiz-adv-x="761" 
d="M101 0v700h189v-111h216q61 0 97 -7q37 -7 62 -30.5t35.5 -59.5t14 -66.5t3.5 -70.5t-3.5 -71t-14.5 -67t-35.5 -59.5t-61.5 -30.5q-42 -8 -97 -8h-216v-119h-189zM425 485h-135v-263h135q41 0 56 4q37 10 45 57q5 32 5 71q0 88 -24 112q-11 11 -26 15t-56 4z" />
    <glyph glyph-name="germandbls" unicode="&#xdf;" horiz-adv-x="716" 
d="M253 0h-177v533q0 118 38 154q35 38 133 38h233q43 0 73 -6t55 -30t25 -66q0 -39 -35 -92l-49 -76q-10 -13 -16 -26q-5 -12 -5 -19q0 -8 4 -16q3 -7 15 -25l102 -131q24 -29 35 -52.5t11 -56.5q0 -64 -41 -96.5t-107 -32.5h-211v98h135q44 0 44 34q0 13 -6 25
q-11 18 -29 38l-85 106q-34 38 -34 75q0 15 6 30q4 12 20 39l50 79q11 16 26 44q7 13 7 28q0 32 -44 32h-94q-23 0 -38 -3q-15 -5 -25 -13q-9 -11 -12 -29q-4 -17 -4 -53v-530z" />
    <glyph glyph-name="agrave" unicode="&#xe0;" horiz-adv-x="677" 
d="M89 461v99h353q91 0 125 -39.5t34 -132.5v-388h-400q-40 0 -67 5q-76 13 -76 163q0 30 2 50.5t8.5 45.5t23 41.5t41.5 25.5q19 6 68 8l223 7v26q0 21 -2 43q-6 29 -21 37.5t-47 8.5h-265zM424 92v174l-131 -5q-21 -2 -28 -4q-10 -3 -16 -10q-16 -16 -16 -70q0 -57 16 -73
q6 -8 16 -9q9 -3 28 -3h131zM322 782l102 -156h-138l-139 156h175z" />
    <glyph glyph-name="aacute" unicode="&#xe1;" horiz-adv-x="677" 
d="M89 461v99h353q91 0 125 -39.5t34 -132.5v-388h-400q-40 0 -67 5q-76 13 -76 163q0 30 2 50.5t8.5 45.5t23 41.5t41.5 25.5q19 6 68 8l223 7v26q0 21 -2 43q-6 29 -21 37.5t-47 8.5h-265zM424 92v174l-131 -5q-21 -2 -28 -4q-10 -3 -16 -10q-16 -16 -16 -70q0 -57 16 -73
q6 -8 16 -9q9 -3 28 -3h131zM390 626h-138l102 156h175z" />
    <glyph glyph-name="acircumflex" unicode="&#xe2;" horiz-adv-x="677" 
d="M89 461v99h353q91 0 125 -39.5t34 -132.5v-388h-400q-40 0 -67 5q-76 13 -76 163q0 30 2 50.5t8.5 45.5t23 41.5t41.5 25.5q19 6 68 8l223 7v26q0 21 -2 43q-6 29 -21 37.5t-47 8.5h-265zM424 92v174l-131 -5q-21 -2 -28 -4q-10 -3 -16 -10q-16 -16 -16 -70q0 -57 16 -73
q6 -8 16 -9q9 -3 28 -3h131zM221 626h-122l141 156h166q17 0 26 -4q6 -3 19 -16l126 -136h-180l-66 72q-9 10 -13 13t-9 3q-10 0 -21 -16z" />
    <glyph glyph-name="atilde" unicode="&#xe3;" horiz-adv-x="677" 
d="M89 461v99h353q91 0 125 -39.5t34 -132.5v-388h-400q-40 0 -67 5q-76 13 -76 163q0 30 2 50.5t8.5 45.5t23 41.5t41.5 25.5q19 6 68 8l223 7v26q0 21 -2 43q-6 29 -21 37.5t-47 8.5h-265zM424 92v174l-131 -5q-21 -2 -28 -4q-10 -3 -16 -10q-16 -16 -16 -70q0 -57 16 -73
q6 -8 16 -9q9 -3 28 -3h131zM216 624h-73v95q0 82 74 82h5q18 0 37 -6q6 -2 20 -7.5t23 -9.5l100 -38q21 -10 30 -12q7 -3 14 -3q6 0 10 4q4 3 4 15v57h73v-95q0 -82 -74 -82h-5q-18 0 -36 6q-20 6 -44 16l-100 38q-14 7 -29 13q-9 3 -15 3t-10 -3q-4 -4 -4 -17v-56z" />
    <glyph glyph-name="adieresis" unicode="&#xe4;" horiz-adv-x="677" 
d="M89 461v99h353q91 0 125 -39.5t34 -132.5v-388h-400q-40 0 -67 5q-76 13 -76 163q0 30 2 50.5t8.5 45.5t23 41.5t41.5 25.5q19 6 68 8l223 7v26q0 21 -2 43q-6 29 -21 37.5t-47 8.5h-265zM424 92v174l-131 -5q-21 -2 -28 -4q-10 -3 -16 -10q-16 -16 -16 -70q0 -57 16 -73
q6 -8 16 -9q9 -3 28 -3h131zM160 630v117h137v-117h-137zM379 630v117h137v-117h-137z" />
    <glyph glyph-name="aring" unicode="&#xe5;" horiz-adv-x="677" 
d="M89 461v99h353q91 0 125 -39.5t34 -132.5v-388h-400q-40 0 -67 5q-76 13 -76 163q0 30 2 50.5t8.5 45.5t23 41.5t41.5 25.5q19 6 68 8l223 7v26q0 21 -2 43q-6 29 -21 37.5t-47 8.5h-265zM424 92v174l-131 -5q-21 -2 -28 -4q-10 -3 -16 -10q-16 -16 -16 -70q0 -57 16 -73
q6 -8 16 -9q9 -3 28 -3h131zM255 846h166q61 0 85.5 -23.5t24.5 -88.5q0 -60 -26.5 -85.5t-83.5 -25.5h-166q-33 0 -50 4q-32 5 -46 36.5t-14 70.5q0 94 61 108q17 4 49 4zM362 796h-48q-14 0 -22.5 -1.5t-15.5 -9t-9 -21.5q-3 -14 -3 -30t3 -29q2 -20 14 -25.5t33 -5.5h48
q22 0 33 5.5t15 25.5q2 18 2 29q0 12 -2 30q-5 20 -16 26t-32 6z" />
    <glyph glyph-name="ae" unicode="&#xe6;" horiz-adv-x="1044" 
d="M89 461v99h277q98 0 133 -35q17 -19 25 -34q29 45 62 57t94 12h137q75 0 114 -23.5t50 -91.5q9 -53 9 -156v-53h-373q4 -102 28 -123q15 -15 54 -15h265v-98h-284q-60 0 -97 12t-60 54q-1 -2 -5 -7.5t-6 -8.5q-26 -33 -58.5 -41.5t-87.5 -8.5h-157q-88 0 -115 27
q-36 36 -36 140q0 142 76 162q24 6 70 6h222q-2 53 -7 76q-8 26 -19 36q-9 9 -22 12q-18 2 -32 2h-257zM617 321h205q-2 64 -4 89q-6 51 -42 59q-18 2 -36 2h-42q-37 0 -54 -15q-14 -14 -20 -44q-5 -27 -7 -91zM295 92h51q20 0 33 3q32 3 41 57q5 29 7 102h-132
q-29 0 -44.5 -7.5t-20.5 -32.5q-4 -16 -4 -39q0 -22 4 -39q4 -27 19.5 -35.5t45.5 -8.5z" />
    <glyph glyph-name="ccedilla" unicode="&#xe7;" horiz-adv-x="582" 
d="M535 0h-130l-66 -216h-170l118 216h-50q-73 0 -110.5 25.5t-54.5 93.5q-15 55 -15 161q0 34 1 59.5t7 65t17 66.5t32 50.5t51 31.5q27 7 72 7h298v-98h-218q-15 0 -31 -2q-12 -3 -23 -12q-12 -12 -20 -51q-7 -35 -7 -117t7 -117q8 -39 20 -51q11 -10 23 -11q12 -3 31 -3
h218v-98z" />
    <glyph glyph-name="egrave" unicode="&#xe8;" horiz-adv-x="660" 
d="M237 560h195q102 0 134.5 -40.5t36.5 -141.5q2 -54 2 -92v-56h-371q2 -55 8 -78q11 -47 41 -51q12 -3 31 -3h266v-98h-343q-73 0 -110 25.5t-55 92.5q-14 56 -14 163q0 38 0.5 60.5t6.5 63.5t16 66.5t31.5 49t52.5 31.5q30 8 72 8zM356 471h-43q-15 0 -31 -2
q-34 -7 -42 -59q-5 -30 -7 -96h205q-2 68 -4 93q-4 54 -42 62q-18 2 -36 2zM328 783l102 -156h-138l-139 156h175z" />
    <glyph glyph-name="eacute" unicode="&#xe9;" horiz-adv-x="660" 
d="M237 560h195q102 0 134.5 -40.5t36.5 -141.5q2 -54 2 -92v-56h-371q2 -55 8 -78q11 -47 41 -51q12 -3 31 -3h266v-98h-343q-73 0 -110 25.5t-55 92.5q-14 56 -14 163q0 38 0.5 60.5t6.5 63.5t16 66.5t31.5 49t52.5 31.5q30 8 72 8zM356 471h-43q-15 0 -31 -2
q-34 -7 -42 -59q-5 -30 -7 -96h205q-2 68 -4 93q-4 54 -42 62q-18 2 -36 2zM396 627h-138l102 156h175z" />
    <glyph glyph-name="ecircumflex" unicode="&#xea;" horiz-adv-x="660" 
d="M237 560h195q102 0 134.5 -40.5t36.5 -141.5q2 -54 2 -92v-56h-371q2 -55 8 -78q11 -47 41 -51q12 -3 31 -3h266v-98h-343q-73 0 -110 25.5t-55 92.5q-14 56 -14 163q0 38 0.5 60.5t6.5 63.5t16 66.5t31.5 49t52.5 31.5q30 8 72 8zM356 471h-43q-15 0 -31 -2
q-34 -7 -42 -59q-5 -30 -7 -96h205q-2 68 -4 93q-4 54 -42 62q-18 2 -36 2zM227 627h-122l141 156h166q17 0 26 -4q6 -3 19 -16l126 -136h-180l-66 72q-9 10 -13 13t-9 3q-10 0 -21 -16z" />
    <glyph glyph-name="edieresis" unicode="&#xeb;" horiz-adv-x="660" 
d="M237 560h195q102 0 134.5 -40.5t36.5 -141.5q2 -54 2 -92v-56h-371q2 -55 8 -78q11 -47 41 -51q12 -3 31 -3h266v-98h-343q-73 0 -110 25.5t-55 92.5q-14 56 -14 163q0 38 0.5 60.5t6.5 63.5t16 66.5t31.5 49t52.5 31.5q30 8 72 8zM356 471h-43q-15 0 -31 -2
q-34 -7 -42 -59q-5 -30 -7 -96h205q-2 68 -4 93q-4 54 -42 62q-18 2 -36 2zM166 631v117h137v-117h-137zM385 631v117h137v-117h-137z" />
    <glyph glyph-name="igrave" unicode="&#xec;" horiz-adv-x="340" 
d="M82 0v560h177v-560h-177zM137 782l102 -156h-138l-139 156h175z" />
    <glyph glyph-name="iacute" unicode="&#xed;" horiz-adv-x="340" 
d="M82 0v560h177v-560h-177zM239 626h-138l102 156h175z" />
    <glyph glyph-name="icircumflex" unicode="&#xee;" horiz-adv-x="340" 
d="M82 0v560h177v-560h-177zM53 626h-122l141 156h166q17 0 26 -4q6 -3 19 -16l126 -136h-180l-66 72q-9 10 -13 13t-9 3q-10 0 -21 -16z" />
    <glyph glyph-name="idieresis" unicode="&#xef;" horiz-adv-x="340" 
d="M82 0v560h177v-560h-177zM-8 630v117h137v-117h-137zM211 630v117h137v-117h-137z" />
    <glyph glyph-name="eth" unicode="&#xf0;" horiz-adv-x="690" 
d="M266 624l-140 101h217l71 -52l178 57v-70l-110 -36l37 -27q29 -20 54 -43q32 -33 47 -82q8 -37 12 -110q1 -24 1 -82q0 -40 -1 -64t-6 -62.5t-17.5 -68t-32.5 -49.5q-41 -41 -136 -41h-196q-74 0 -115 24.5t-62 89.5q-16 45 -16 128q0 198 119 232q36 10 106 10h160
q-20 42 -73 76l-28 20l-176 -54v70zM316 87h55q40 0 54 14t22 55q7 38 7 124v60q0 8 -0.5 24.5t-1.5 23.5h-136q-40 0 -56 -16q-25 -25 -25 -130q0 -58 6 -91q5 -37 22 -50.5t53 -13.5z" />
    <glyph glyph-name="ntilde" unicode="&#xf1;" horiz-adv-x="707" 
d="M80 0v560h390q92 0 125.5 -38.5t33.5 -132.5v-389h-177v370q0 19 -2 43q-6 29 -21.5 38t-46.5 9h-125v-460h-177zM230 624h-73v95q0 82 74 82h5q17 0 37 -6q6 -2 20 -7.5t23 -9.5l100 -38q21 -10 30 -12q8 -3 14 -3t10 4q4 3 4 15v57h73v-95q0 -82 -74 -82h-5
q-18 0 -36 6q-20 6 -44 16l-100 38q-14 7 -29 13q-9 3 -15 3t-10 -3q-4 -4 -4 -17v-56z" />
    <glyph glyph-name="ograve" unicode="&#xf2;" horiz-adv-x="686" 
d="M251 565h184q81 0 121 -26.5t59 -98.5q13 -63 13 -161q0 -39 -1 -63t-6.5 -64t-16.5 -65.5t-33.5 -49.5t-54.5 -33t-81 -9h-184q-77 0 -121 27.5t-58 97.5q-14 54 -14 160q0 188 56 244q44 41 137 41zM368 473h-50q-38 0 -53.5 -15.5t-21.5 -52.5q-3 -15 -5 -51
q-2 -42 -2 -74q0 -87 7 -123q10 -63 43 -67q12 -3 32 -3h50q19 0 32 3q31 4 44 66q6 39 6 123t-6 126q-4 19 -9 33q-11 22 -25.5 28.5t-41.5 6.5zM327 787l102 -156h-138l-139 156h175z" />
    <glyph glyph-name="oacute" unicode="&#xf3;" horiz-adv-x="686" 
d="M251 565h184q81 0 121 -26.5t59 -98.5q13 -63 13 -161q0 -39 -1 -63t-6.5 -64t-16.5 -65.5t-33.5 -49.5t-54.5 -33t-81 -9h-184q-77 0 -121 27.5t-58 97.5q-14 54 -14 160q0 188 56 244q44 41 137 41zM368 473h-50q-38 0 -53.5 -15.5t-21.5 -52.5q-3 -15 -5 -51
q-2 -42 -2 -74q0 -87 7 -123q10 -63 43 -67q12 -3 32 -3h50q19 0 32 3q31 4 44 66q6 39 6 123t-6 126q-4 19 -9 33q-11 22 -25.5 28.5t-41.5 6.5zM395 631h-138l102 156h175z" />
    <glyph glyph-name="ocircumflex" unicode="&#xf4;" horiz-adv-x="686" 
d="M251 565h184q81 0 121 -26.5t59 -98.5q13 -63 13 -161q0 -39 -1 -63t-6.5 -64t-16.5 -65.5t-33.5 -49.5t-54.5 -33t-81 -9h-184q-77 0 -121 27.5t-58 97.5q-14 54 -14 160q0 188 56 244q44 41 137 41zM368 473h-50q-38 0 -53.5 -15.5t-21.5 -52.5q-3 -15 -5 -51
q-2 -42 -2 -74q0 -87 7 -123q10 -63 43 -67q12 -3 32 -3h50q19 0 32 3q31 4 44 66q6 39 6 123t-6 126q-4 19 -9 33q-11 22 -25.5 28.5t-41.5 6.5zM226 631h-122l141 156h166q17 0 26 -4q6 -3 19 -16l126 -136h-180l-66 72q-9 10 -13 13q-5 3 -9 3q-10 0 -21 -16z" />
    <glyph glyph-name="otilde" unicode="&#xf5;" horiz-adv-x="686" 
d="M251 565h184q81 0 121 -26.5t59 -98.5q13 -63 13 -161q0 -39 -1 -63t-6.5 -64t-16.5 -65.5t-33.5 -49.5t-54.5 -33t-81 -9h-184q-77 0 -121 27.5t-58 97.5q-14 54 -14 160q0 188 56 244q44 41 137 41zM368 473h-50q-38 0 -53.5 -15.5t-21.5 -52.5q-3 -15 -5 -51
q-2 -42 -2 -74q0 -87 7 -123q10 -63 43 -67q12 -3 32 -3h50q19 0 32 3q31 4 44 66q6 39 6 123t-6 126q-4 19 -9 33q-11 22 -25.5 28.5t-41.5 6.5zM221 629h-73v95q0 82 74 82h5q17 0 37 -6q6 -2 20 -7.5t23 -9.5l100 -38q21 -11 30 -12q7 -3 14 -3q6 0 10 4q4 3 4 15v57h73
v-95q0 -82 -74 -82h-5q-18 0 -36 6q-20 6 -44 16l-100 38q-14 7 -29 13q-9 3 -15 3q-5 0 -10 -3q-4 -4 -4 -17v-56z" />
    <glyph glyph-name="odieresis" unicode="&#xf6;" horiz-adv-x="686" 
d="M251 565h184q81 0 121 -26.5t59 -98.5q13 -63 13 -161q0 -39 -1 -63t-6.5 -64t-16.5 -65.5t-33.5 -49.5t-54.5 -33t-81 -9h-184q-77 0 -121 27.5t-58 97.5q-14 54 -14 160q0 188 56 244q44 41 137 41zM368 473h-50q-38 0 -53.5 -15.5t-21.5 -52.5q-3 -15 -5 -51
q-2 -42 -2 -74q0 -87 7 -123q10 -63 43 -67q12 -3 32 -3h50q19 0 32 3q31 4 44 66q6 39 6 123t-6 126q-4 19 -9 33q-11 22 -25.5 28.5t-41.5 6.5zM165 635v117h137v-117h-137zM384 635v117h137v-117h-137z" />
    <glyph glyph-name="divide" unicode="&#xf7;" horiz-adv-x="719" 
d="M281 509v134h157v-134h-157zM647 293h-575v124h575v-124zM281 67v134h157v-134h-157z" />
    <glyph glyph-name="oslash" unicode="&#xf8;" horiz-adv-x="686" 
d="M239 -5l-31 -53h-99l39 69q-59 25 -76 109q-14 54 -14 160q0 188 56 244q44 41 137 41h194l30 52h99l-39 -67q35 -16 52 -42t28 -68q13 -63 13 -161q0 -39 -1 -63t-6.5 -64t-16.5 -65.5t-33.5 -49.5t-54.5 -33t-81 -9h-196zM389 471h-80q-15 0 -33 -2q-35 -8 -43 -65
q-3 -15 -5 -51q-2 -42 -2 -73q0 -57 3 -91q1 -34 8 -55l162 336q-3 1 -10 1zM296 89h80q20 0 34 3q31 3 43 65q6 37 6 122q0 111 -12 150l-162 -339q3 -1 11 -1z" />
    <glyph glyph-name="ugrave" unicode="&#xf9;" horiz-adv-x="707" 
d="M627 560v-560h-390q-91 0 -125 39.5t-34 131.5v389h177v-371q0 -27 3 -43q4 -46 67 -46h125v460h177zM336 776l102 -156h-138l-139 156h175z" />
    <glyph glyph-name="uacute" unicode="&#xfa;" horiz-adv-x="707" 
d="M627 560v-560h-390q-91 0 -125 39.5t-34 131.5v389h177v-371q0 -27 3 -43q4 -46 67 -46h125v460h177zM405 620h-138l102 156h175z" />
    <glyph glyph-name="ucircumflex" unicode="&#xfb;" horiz-adv-x="707" 
d="M627 560v-560h-390q-91 0 -125 39.5t-34 131.5v389h177v-371q0 -27 3 -43q4 -46 67 -46h125v460h177zM235 626h-122l141 156h166q17 0 26 -4q6 -3 19 -16l126 -136h-180l-66 72q-9 10 -13 13t-9 3q-10 0 -21 -16z" />
    <glyph glyph-name="udieresis" unicode="&#xfc;" horiz-adv-x="707" 
d="M627 560v-560h-390q-91 0 -125 39.5t-34 131.5v389h177v-371q0 -27 3 -43q4 -46 67 -46h125v460h177zM174 624v117h137v-117h-137zM393 624v117h137v-117h-137z" />
    <glyph glyph-name="yacute" unicode="&#xfd;" horiz-adv-x="625" 
d="M250 -8l-234 568h190l127 -345q3 -11 6 -12q1 -3 6 -3q7 4 12 15l117 345h135l-263 -736h-134l38 105q5 15 6 20q2 10 2 13q0 12 -8 30zM396 623h-138l102 156h175z" />
    <glyph glyph-name="thorn" unicode="&#xfe;" horiz-adv-x="689" 
d="M80 -170v895h177v-165h195q52 0 85 -11.5t51 -38.5t26 -56.5t14 -80.5q3 -41 3 -93q0 -150 -32 -210q-23 -42 -58 -56t-89 -14h-195v-170h-177zM372 462h-115v-364h115q18 0 32 3q12 1 21 12q7 5 13 18q4 11 9 32q6 39 6 117t-6 117q-4 18 -9 31q-10 21 -24.5 27.5
t-41.5 6.5z" />
    <glyph glyph-name="ydieresis" unicode="&#xff;" horiz-adv-x="625" 
d="M250 -8l-234 568h190l127 -345q3 -11 6 -12q1 -3 6 -3q7 4 12 15l117 345h135l-263 -736h-134l38 105q5 15 6 20q2 10 2 13q0 12 -8 30zM162 627v117h137v-117h-137zM381 627v117h137v-117h-137z" />
    <glyph glyph-name="Amacron" unicode="&#x100;" horiz-adv-x="784" 
d="M29 0l255 700h198q25 0 34 -6q8 -6 15 -27l225 -667h-200l-41 130h-302l-46 -130h-138zM358 545l-106 -302h227l-95 302q-1 6 -4 9q-4 2 -9 2q-6 0 -8 -2q-4 -2 -5 -9zM215 776v83h370v-83h-370z" />
    <glyph glyph-name="amacron" unicode="&#x101;" horiz-adv-x="677" 
d="M89 461v99h353q91 0 125 -39.5t34 -132.5v-388h-400q-40 0 -67 5q-76 13 -76 163q0 30 2 50.5t8.5 45.5t23 41.5t41.5 25.5q19 6 68 8l223 7v26q0 21 -2 43q-6 29 -21 37.5t-47 8.5h-265zM424 92v174l-131 -5q-21 -2 -28 -4q-10 -3 -16 -10q-16 -16 -16 -70q0 -57 16 -73
q6 -8 16 -9q9 -3 28 -3h131zM153 638v83h370v-83h-370z" />
    <glyph glyph-name="Abreve" unicode="&#x102;" horiz-adv-x="784" 
d="M29 0l255 700h198q25 0 34 -6q8 -6 15 -27l225 -667h-200l-41 130h-302l-46 -130h-138zM358 545l-106 -302h227l-95 302q-1 6 -4 9q-4 2 -9 2q-6 0 -8 -2q-4 -2 -5 -9zM411 760h-23q-94 0 -137 22q-44 23 -44 98v45h118v-19q0 -55 33 -58q14 -3 39 -3h5q26 0 39 3
q33 3 33 58v19h118v-45q0 -75 -44 -98q-43 -22 -137 -22z" />
    <glyph glyph-name="abreve" unicode="&#x103;" horiz-adv-x="677" 
d="M89 461v99h353q91 0 125 -39.5t34 -132.5v-388h-400q-40 0 -67 5q-76 13 -76 163q0 30 2 50.5t8.5 45.5t23 41.5t41.5 25.5q19 6 68 8l223 7v26q0 21 -2 43q-6 29 -21 37.5t-47 8.5h-265zM424 92v174l-131 -5q-21 -2 -28 -4q-10 -3 -16 -10q-16 -16 -16 -70q0 -57 16 -73
q6 -8 16 -9q9 -3 28 -3h131zM349 622h-23q-94 0 -137 22q-44 23 -44 98v45h118v-19q0 -55 33 -58q14 -3 39 -3h5q26 0 39 3q33 3 33 58v19h118v-45q0 -75 -44 -98q-43 -22 -137 -22z" />
    <glyph glyph-name="Aogonek" unicode="&#x104;" horiz-adv-x="784" 
d="M29 0l255 700h198q25 0 34 -6q8 -6 15 -27l225 -667l-86 -123q-5 -6 -7 -12q-1 -15 9 -15h98v-66h-196q-62 0 -62 47q0 22 29 58l93 111h-77l-41 130h-303l-46 -130h-138zM358 545l-106 -302h228l-96 302q-1 6 -4 9q-4 2 -9 2q-6 0 -8 -2q-4 -2 -5 -9z" />
    <glyph glyph-name="aogonek" unicode="&#x105;" horiz-adv-x="677" 
d="M383 -107l91 107h-273q-40 0 -67 5q-76 13 -76 163q0 30 2 50.5t8.5 45.5t23 41.5t41.5 25.5q19 6 68 8l223 7v26q0 21 -2 43q-6 29 -21 37.5t-47 8.5h-265v99h353q91 0 125 -39.5t34 -132.5v-388l-80 -118q-5 -9 -6 -11q-3 -14 8 -14h93v-72h-199q-64 0 -64 49
q0 22 30 59zM424 92v174l-131 -5q-21 -2 -28 -4q-10 -3 -16 -10q-16 -16 -16 -70q0 -24 1 -36t6.5 -25.5t18.5 -18.5t34 -5h131z" />
    <glyph glyph-name="Cacute" unicode="&#x106;" horiz-adv-x="696" 
d="M281 700h354v-113h-246q-35 0 -55 -3q-48 -11 -62 -88q-10 -50 -10 -146q0 -178 40 -218q14 -12 32 -15q17 -4 55 -4h246v-113h-354q-95 0 -133.5 27.5t-62.5 115.5q-19 72 -19 207q0 34 1 59t4.5 66t11.5 72t21.5 63t36 53t51.5 29q34 8 89 8zM456 764h-138l102 156h175
z" />
    <glyph glyph-name="cacute" unicode="&#x107;" horiz-adv-x="582" 
d="M237 560h298v-98h-218q-15 0 -31 -2q-12 -3 -23 -12q-12 -12 -20 -51q-7 -35 -7 -117t7 -117q8 -39 20 -51q11 -10 23 -11q12 -3 31 -3h218v-98h-298q-73 0 -110.5 25.5t-54.5 93.5q-15 55 -15 161q0 34 1 59.5t7 65t17 66.5t32 50.5t51 31.5q27 7 72 7zM392 626h-138
l102 156h175z" />
    <glyph glyph-name="Cdotaccent" unicode="&#x10a;" horiz-adv-x="696" 
d="M281 700h354v-113h-246q-35 0 -55 -3q-48 -11 -62 -88q-10 -50 -10 -146q0 -178 40 -218q14 -12 32 -15q17 -4 55 -4h246v-113h-354q-95 0 -133.5 27.5t-62.5 115.5q-19 72 -19 207q0 34 1 59t4.5 66t11.5 72t21.5 63t36 53t51.5 29q34 8 89 8zM333 768v121h141v-121
h-141z" />
    <glyph glyph-name="cdotaccent" unicode="&#x10b;" horiz-adv-x="582" 
d="M237 560h298v-98h-218q-15 0 -31 -2q-12 -3 -23 -12q-12 -12 -20 -51q-7 -35 -7 -117t7 -117q8 -39 20 -51q11 -10 23 -11q12 -3 31 -3h218v-98h-298q-73 0 -110.5 25.5t-54.5 93.5q-15 55 -15 161q0 34 1 59.5t7 65t17 66.5t32 50.5t51 31.5q27 7 72 7zM270 630v121h141
v-121h-141z" />
    <glyph glyph-name="Ccaron" unicode="&#x10c;" horiz-adv-x="696" 
d="M281 700h354v-113h-246q-35 0 -55 -3q-48 -11 -62 -88q-10 -50 -10 -146q0 -178 40 -218q14 -12 32 -15q17 -4 55 -4h246v-113h-354q-95 0 -133.5 27.5t-62.5 115.5q-19 72 -19 207q0 34 1 59t4.5 66t11.5 72t21.5 63t36 53t51.5 29q34 8 89 8zM476 764h-165l-146 156
h180l66 -73q9 -11 13 -12q4 -3 9 -3t9 3q4 1 12 12l67 73h122l-122 -136q-20 -20 -45 -20z" />
    <glyph glyph-name="ccaron" unicode="&#x10d;" horiz-adv-x="582" 
d="M237 560h298v-98h-218q-15 0 -31 -2q-12 -3 -23 -12q-12 -12 -20 -51q-7 -35 -7 -117t7 -117q8 -39 20 -51q11 -10 23 -11q12 -3 31 -3h218v-98h-298q-73 0 -110.5 25.5t-54.5 93.5q-15 55 -15 161q0 34 1 59.5t7 65t17 66.5t32 50.5t51 31.5q27 7 72 7zM412 626h-165
l-146 156h180l66 -73q9 -11 13 -12q4 -3 9 -3t9 3q4 1 12 12l67 73h122l-122 -136q-20 -20 -45 -20z" />
    <glyph glyph-name="Dcaron" unicode="&#x10e;" horiz-adv-x="827" 
d="M101 0v700h420q103 0 152 -28.5t72 -119.5q17 -73 17 -202q0 -29 -0.5 -46t-2 -49t-5 -53t-9.5 -50t-16.5 -48.5t-24 -40t-33.5 -33.5t-45 -20q-39 -10 -105 -10h-420zM433 594h-142v-488h142q63 0 90.5 19t38.5 81q8 56 8 144q0 87 -8 145q-11 62 -38.5 80.5t-90.5 18.5
zM485 764h-165l-146 156h180l66 -73q9 -11 13 -12q5 -3 9 -3t9 3q5 1 12 12l67 73h122l-122 -136q-20 -20 -45 -20z" />
    <glyph glyph-name="dcaron" unicode="&#x10f;" horiz-adv-x="689" 
d="M432 560v165h177v-725h-372q-73 0 -110.5 25.5t-54.5 93.5q-15 55 -15 161q0 34 1 59.5t7 65t17 66.5t32 50.5t51 31.5q27 7 72 7h195zM432 98v364h-115q-15 0 -31 -2q-12 -3 -23 -12q-12 -12 -20 -51q-7 -35 -7 -117t7 -117q8 -39 20 -51q11 -10 23 -11q12 -3 31 -3h115
zM677 597v203h127l-26 -203h-101z" />
    <glyph glyph-name="Dcroat" unicode="&#x110;" horiz-adv-x="834" 
d="M11 307v98h97v295h420q103 0 152 -28.5t72 -119.5q17 -73 17 -202q0 -29 -0.5 -46t-2 -49t-5 -53t-9.5 -50t-16.5 -48.5t-24 -40t-33.5 -33.5t-45 -20q-39 -10 -105 -10h-420v307h-97zM440 594h-142v-189h148v-98h-148v-201h142q63 0 90.5 19t38.5 81q8 56 8 144
q0 87 -8 145q-11 62 -38.5 80.5t-90.5 18.5z" />
    <glyph glyph-name="dcroat" unicode="&#x111;" horiz-adv-x="689" 
d="M432 597h-134v64h134v64h177v-64h71v-64h-71v-597h-372q-73 0 -110.5 24.5t-54.5 91.5q-15 52 -15 152q0 231 107 260q27 7 73 7h195v62zM432 98v339h-115q-37 0 -54 -15q-12 -12 -20 -48q-7 -32 -7 -106q0 -29 2 -63q2 -27 6 -45q9 -55 42 -59q12 -3 31 -3h115z" />
    <glyph glyph-name="Emacron" unicode="&#x112;" horiz-adv-x="695" 
d="M101 0v700h526v-113h-336v-175h329v-113h-329v-186h336v-113h-526zM186 776v83h370v-83h-370z" />
    <glyph glyph-name="emacron" unicode="&#x113;" horiz-adv-x="660" 
d="M237 560h195q102 0 134.5 -40.5t36.5 -141.5q2 -54 2 -92v-56h-371q2 -55 8 -78q11 -47 41 -51q12 -3 31 -3h266v-98h-343q-73 0 -110 25.5t-55 92.5q-14 56 -14 163q0 38 0.5 60.5t6.5 63.5t16 66.5t31.5 49t52.5 31.5q30 8 72 8zM356 471h-43q-15 0 -31 -2
q-34 -7 -42 -59q-5 -30 -7 -96h205q-2 68 -4 93q-4 54 -42 62q-18 2 -36 2zM159 639v83h370v-83h-370z" />
    <glyph glyph-name="Ebreve" unicode="&#x114;" horiz-adv-x="695" 
d="M101 0v700h526v-113h-336v-175h329v-113h-329v-186h336v-113h-526zM382 760h-23q-94 0 -137 22q-44 23 -44 98v45h118v-19q0 -55 33 -58q13 -3 39 -3h5q25 0 39 3q33 3 33 58v19h118v-45q0 -75 -44 -98q-43 -22 -137 -22z" />
    <glyph glyph-name="ebreve" unicode="&#x115;" horiz-adv-x="660" 
d="M237 560h195q102 0 134.5 -40.5t36.5 -141.5q2 -54 2 -92v-56h-371q2 -55 8 -78q11 -47 41 -51q12 -3 31 -3h266v-98h-343q-73 0 -110 25.5t-55 92.5q-14 56 -14 163q0 38 0.5 60.5t6.5 63.5t16 66.5t31.5 49t52.5 31.5q30 8 72 8zM356 471h-43q-15 0 -31 -2
q-34 -7 -42 -59q-5 -30 -7 -96h205q-2 68 -4 93q-4 54 -42 62q-18 2 -36 2zM355 623h-23q-94 0 -137 22q-44 23 -44 98v45h118v-19q0 -55 33 -58q14 -3 39 -3h5q26 0 39 3q33 3 33 58v19h118v-45q0 -75 -44 -98q-43 -22 -137 -22z" />
    <glyph glyph-name="Edotaccent" unicode="&#x116;" horiz-adv-x="695" 
d="M101 0v700h526v-113h-336v-175h329v-113h-329v-186h336v-113h-526zM301 768v121h141v-121h-141z" />
    <glyph glyph-name="edotaccent" unicode="&#x117;" horiz-adv-x="660" 
d="M237 560h195q102 0 134.5 -40.5t36.5 -141.5q2 -54 2 -92v-56h-371q2 -55 8 -78q11 -47 41 -51q12 -3 31 -3h266v-98h-343q-73 0 -110 25.5t-55 92.5q-14 56 -14 163q0 38 0.5 60.5t6.5 63.5t16 66.5t31.5 49t52.5 31.5q30 8 72 8zM356 471h-43q-15 0 -31 -2
q-34 -7 -42 -59q-5 -30 -7 -96h205q-2 68 -4 93q-4 54 -42 62q-18 2 -36 2zM274 631v121h141v-121h-141z" />
    <glyph glyph-name="Eogonek" unicode="&#x118;" horiz-adv-x="695" 
d="M101 700h526v-113h-336v-178h329v-107h-329v-189h357v-6l-104 -230q-2 -4 -5 -12q-3 -15 9 -15h98v-66h-196q-62 0 -62 47q0 16 7 26q6 13 19 31l78 112h-391v700z" />
    <glyph glyph-name="eogonek" unicode="&#x119;" horiz-adv-x="660" 
d="M237 560h195q102 0 134.5 -40.5t36.5 -141.5q2 -54 2 -92v-56h-371q4 -124 49 -129q12 -3 31 -3h286v-5l-98 -206q-6 -12 -6 -22q0 -8 11 -8h92v-72h-199q-64 0 -64 49q0 14 7 25q4 9 20 32l79 109h-205q-72 0 -110 25.5t-55 91.5q-14 56 -14 163v36.5t1.5 39t4 42.5
t7.5 40t13 39.5t19 32t26.5 27t35.5 15.5q30 8 72 8zM356 471h-43q-15 0 -31 -2q-34 -7 -42 -59q-5 -30 -7 -96h205q-2 68 -4 93q-4 54 -42 62q-18 2 -36 2z" />
    <glyph glyph-name="Ecaron" unicode="&#x11a;" horiz-adv-x="695" 
d="M101 0v700h526v-113h-336v-175h329v-113h-329v-186h336v-113h-526zM443 764h-165l-146 156h180l66 -73q9 -11 13 -12q5 -3 9 -3t9 3q5 1 12 12l67 73h122l-122 -136q-20 -20 -45 -20z" />
    <glyph glyph-name="ecaron" unicode="&#x11b;" horiz-adv-x="660" 
d="M237 560h195q102 0 134.5 -40.5t36.5 -141.5q2 -54 2 -92v-56h-371q2 -55 8 -78q11 -47 41 -51q12 -3 31 -3h266v-98h-343q-73 0 -110 25.5t-55 92.5q-14 56 -14 163q0 38 0.5 60.5t6.5 63.5t16 66.5t31.5 49t52.5 31.5q30 8 72 8zM356 471h-43q-15 0 -31 -2
q-34 -7 -42 -59q-5 -30 -7 -96h205q-2 68 -4 93q-4 54 -42 62q-18 2 -36 2zM416 627h-165l-146 156h180l66 -73q9 -11 13 -12q4 -3 9 -3t9 3q4 2 12 12l67 73h122l-122 -136q-20 -20 -45 -20z" />
    <glyph glyph-name="Gbreve" unicode="&#x11e;" horiz-adv-x="783" 
d="M278 700h415v-113h-309q-36 0 -55 -3q-48 -11 -62 -88q-9 -53 -9 -146q0 -94 9 -145q9 -52 30 -73q13 -12 32 -16q17 -4 55 -4h139v267h174v-379h-416q-95 0 -133.5 27.5t-62.5 115.5q-19 72 -19 207q0 34 1 59t4.5 66t11.5 72t21.5 63t36 53t51.5 29q34 8 86 8zM429 760
h-23q-94 0 -137 22q-44 23 -44 98v45h118v-19q0 -55 33 -58q14 -3 39 -3h5q26 0 39 3q33 3 33 58v19h118v-45q0 -75 -44 -98q-43 -22 -137 -22z" />
    <glyph glyph-name="gbreve" unicode="&#x11f;" horiz-adv-x="682" 
d="M237 560h367v-531q0 -37 -1 -56.5t-5 -46.5t-14 -41.5t-26 -28.5t-42.5 -20t-62.5 -6h-356v98h265q30 0 44 9.5t19 36.5q3 22 3 71v6h-193q-74 0 -113 25t-54 92q-12 51 -12 138q0 218 109 246q30 8 72 8zM427 149v313h-113q-14 0 -32 -2q-39 -9 -45 -66q-5 -42 -5 -88
q0 -50 5 -90q7 -60 45 -64q14 -3 32 -3h113zM360 622h-23q-94 0 -137 22q-44 23 -44 98v45h118v-19q0 -55 33 -58q13 -3 39 -3h5q25 0 39 3q33 3 33 58v19h118v-45q0 -75 -44 -98q-43 -22 -137 -22z" />
    <glyph glyph-name="Gdotaccent" unicode="&#x120;" horiz-adv-x="783" 
d="M278 700h415v-113h-309q-36 0 -55 -3q-48 -11 -62 -88q-9 -53 -9 -146q0 -94 9 -145q9 -52 30 -73q13 -12 32 -16q17 -4 55 -4h139v267h174v-379h-416q-95 0 -133.5 27.5t-62.5 115.5q-19 72 -19 207q0 34 1 59t4.5 66t11.5 72t21.5 63t36 53t51.5 29q34 8 86 8zM348 768
v121h141v-121h-141z" />
    <glyph glyph-name="gdotaccent" unicode="&#x121;" horiz-adv-x="682" 
d="M237 560h367v-531q0 -37 -1 -56.5t-5 -46.5t-14 -41.5t-26 -28.5t-42.5 -20t-62.5 -6h-356v98h265q30 0 44 9.5t19 36.5q3 22 3 71v6h-193q-74 0 -113 25t-54 92q-12 51 -12 138q0 218 109 246q30 8 72 8zM427 149v313h-113q-14 0 -32 -2q-39 -9 -45 -66q-5 -42 -5 -88
q0 -50 5 -90q7 -60 45 -64q14 -3 32 -3h113zM278 630v121h141v-121h-141z" />
    <glyph glyph-name="Gcedilla" unicode="&#x122;" horiz-adv-x="783" 
d="M278 700h415v-113h-309q-36 0 -55 -3q-48 -11 -62 -88q-9 -53 -9 -146q0 -94 9 -145q9 -52 30 -73q13 -12 32 -16q17 -4 55 -4h139v267h174v-379h-416q-95 0 -133.5 27.5t-62.5 115.5q-19 72 -19 207q0 34 1 59t4.5 66t11.5 72t21.5 63t36 53t51.5 29q34 8 86 8z
M303 -279l51 215h148l-81 -215h-118z" />
    <glyph glyph-name="gcedilla" unicode="&#x123;" horiz-adv-x="682" 
d="M237 560h367v-531q0 -37 -1 -56.5t-5 -46.5t-14 -41.5t-26 -28.5t-42.5 -20t-62.5 -6h-356v98h265q30 0 44 9.5t19 36.5q3 22 3 71v6h-193q-74 0 -113 25t-54 92q-12 51 -12 138q0 218 109 246q30 8 72 8zM427 149v313h-113q-14 0 -32 -2q-39 -9 -45 -66q-5 -42 -5 -88
q0 -50 5 -90q7 -60 45 -64q14 -3 32 -3h113zM418 630h-147l80 215h119z" />
    <glyph glyph-name="Hbar" unicode="&#x126;" horiz-adv-x="876" 
d="M11 501v98h97v101h190v-107h282v107h190v-101h93v-98h-93v-501h-190v283h-282v-283h-190v501h-97zM298 506v-109h282v109h-282z" />
    <glyph glyph-name="hbar" unicode="&#x127;" horiz-adv-x="707" 
d="M80 597h-75v64h75v64h176v-64h130v-64h-130v-62h214q92 0 125.5 -38.5t33.5 -132.5v-364h-177v345q0 19 -2 43q-6 29 -21.5 38t-46.5 9h-125v-435h-177v597z" />
    <glyph glyph-name="Imacron" unicode="&#x12a;" horiz-adv-x="400" 
d="M105 0v700h190v-700h-190zM15 776v83h370v-83h-370z" />
    <glyph glyph-name="imacron" unicode="&#x12b;" horiz-adv-x="340" 
d="M82 0v560h177v-560h-177zM-15 638v83h370v-83h-370z" />
    <glyph glyph-name="Ibreve" unicode="&#x12c;" horiz-adv-x="400" 
d="M105 0v700h190v-700h-190zM211 760h-23q-94 0 -137 22q-44 23 -44 98v45h118v-19q0 -55 33 -58q14 -3 39 -3h5q26 0 39 3q33 3 33 58v19h118v-45q0 -75 -44 -98q-43 -22 -137 -22z" />
    <glyph glyph-name="ibreve" unicode="&#x12d;" horiz-adv-x="340" 
d="M82 0v560h177v-560h-177zM182 622h-23q-94 0 -137 22q-44 23 -44 98v45h118v-19q0 -55 33 -58q13 -3 39 -3h5q25 0 39 3q33 3 33 58v19h118v-45q0 -75 -44 -98q-43 -22 -137 -22z" />
    <glyph glyph-name="Iogonek" unicode="&#x12e;" horiz-adv-x="400" 
d="M220 -150h93v-66h-190q-62 0 -62 47q0 13 6 25q3 10 17 32l68 112h-47v700h190v-700h-41l-39 -119q-1 -3 -2 -8.5t-2 -6.5q-2 -6 -2 -7q0 -9 11 -9z" />
    <glyph glyph-name="iogonek" unicode="&#x12f;" horiz-adv-x="340" 
d="M79 624v91h183v-91h-183zM47 -106l63 106h-28v560h177v-560h-23l-50 -118q-1 -2 -2.5 -6t-1.5 -5q-1 -14 10 -14h93v-71h-198q-64 0 -64 48q0 15 6 28q4 10 18 32z" />
    <glyph glyph-name="Idotaccent" unicode="&#x130;" horiz-adv-x="400" 
d="M105 0v700h190v-700h-190zM130 768v121h141v-121h-141z" />
    <glyph glyph-name="dotlessi" unicode="&#x131;" horiz-adv-x="340" 
d="M82 0v560h177v-560h-177z" />
    <glyph glyph-name="Kcedilla" unicode="&#x136;" horiz-adv-x="802" 
d="M101 700h190v-332l307 332h170l-224 -243l237 -457h-216l-170 335l-104 -108v-227h-190v700zM302 -273l51 215h148l-81 -215h-118z" />
    <glyph glyph-name="kcedilla" unicode="&#x137;" horiz-adv-x="672" 
d="M467 367l184 -367h-190l-126 259l-78 -91v-168h-177v725h177v-412l235 247h153zM229 -271l51 215h148l-81 -215h-118z" />
    <glyph glyph-name="Lacute" unicode="&#x139;" horiz-adv-x="646" 
d="M101 0v700h190v-587h322v-113h-512zM264 764h-138l102 156h175z" />
    <glyph glyph-name="lacute" unicode="&#x13a;" horiz-adv-x="340" 
d="M82 0v725h177v-725h-177zM239 791h-138l102 156h175z" />
    <glyph glyph-name="Lcedilla" unicode="&#x13b;" horiz-adv-x="646" 
d="M101 0v700h190v-587h322v-113h-512zM242 -279l51 215h148l-81 -215h-118z" />
    <glyph glyph-name="lcedilla" unicode="&#x13c;" horiz-adv-x="340" 
d="M82 0v725h177v-725h-177zM45 -279l51 215h148l-81 -215h-118z" />
    <glyph glyph-name="Lcaron" unicode="&#x13d;" horiz-adv-x="646" 
d="M101 0v700h190v-587h322v-113h-512zM381 572v203h127l-26 -203h-101z" />
    <glyph glyph-name="lcaron" unicode="&#x13e;" horiz-adv-x="340" 
d="M82 0v725h177v-725h-177zM327 597v203h127l-26 -203h-101z" />
    <glyph glyph-name="Ldot" unicode="&#x13f;" horiz-adv-x="646" 
d="M101 0v700h190v-587h322v-113h-512zM438 336v125h159v-125h-159z" />
    <glyph glyph-name="ldot" unicode="&#x140;" horiz-adv-x="450" 
d="M82 0v725h177v-725h-177zM329 284v144h133v-144h-133z" />
    <glyph glyph-name="Lslash" unicode="&#x141;" horiz-adv-x="653" 
d="M11 250v100l97 28v322h190v-267l200 58v-100l-200 -58v-220h322v-113h-512v278z" />
    <glyph glyph-name="lslash" unicode="&#x142;" horiz-adv-x="361" 
d="M92 329l-86 -27v75l86 27v321h177v-266l82 26v-76l-82 -25v-384h-177v329z" />
    <glyph glyph-name="Nacute" unicode="&#x143;" horiz-adv-x="841" 
d="M101 0v700h174q20 0 29 -3q10 -5 17 -17l252 -427q7 -15 19 -15q9 0 9 15v447h139v-700h-174q-22 0 -30 4q-9 3 -16 16l-252 424q-5 9 -9 13q-6 2 -10 2q-9 0 -9 -15v-444h-139zM485 762h-138l102 156h175z" />
    <glyph glyph-name="nacute" unicode="&#x144;" horiz-adv-x="707" 
d="M80 0v560h390q92 0 125.5 -38.5t33.5 -132.5v-389h-177v370q0 19 -2 43q-6 29 -21.5 38t-46.5 9h-125v-460h-177zM405 626h-138l102 156h175z" />
    <glyph glyph-name="Ncedilla" unicode="&#x145;" horiz-adv-x="841" 
d="M101 0v700h174q20 0 29 -3q10 -5 17 -17l252 -427q7 -15 19 -15q9 0 9 15v447h139v-700h-174q-22 0 -30 4q-9 3 -16 16l-252 424q-5 9 -9 13q-6 2 -10 2q-9 0 -9 -15v-444h-139zM290 -273l51 215h148l-81 -215h-118z" />
    <glyph glyph-name="ncedilla" unicode="&#x146;" horiz-adv-x="707" 
d="M80 0v560h390q92 0 125.5 -38.5t33.5 -132.5v-389h-177v370q0 19 -2 43q-6 29 -21.5 38t-46.5 9h-125v-460h-177zM238 -271l51 215h148l-81 -215h-118z" />
    <glyph glyph-name="Ncaron" unicode="&#x147;" horiz-adv-x="841" 
d="M101 0v700h174q20 0 29 -3q10 -5 17 -17l252 -427q7 -15 19 -15q9 0 9 15v447h139v-700h-174q-22 0 -30 4q-9 3 -16 16l-252 424q-5 9 -9 13q-6 2 -10 2q-9 0 -9 -15v-444h-139zM505 762h-165l-146 156h180l66 -73q9 -11 13 -12q5 -3 9 -3t9 3q5 1 12 12l67 73h122
l-122 -136q-20 -20 -45 -20z" />
    <glyph glyph-name="ncaron" unicode="&#x148;" horiz-adv-x="707" 
d="M80 0v560h390q92 0 125.5 -38.5t33.5 -132.5v-389h-177v370q0 19 -2 43q-6 29 -21.5 38t-46.5 9h-125v-460h-177zM424 626h-165l-146 156h180l66 -73q9 -11 13 -12q4 -3 9 -3t9 3q4 1 12 12l67 73h122l-122 -136q-20 -20 -45 -20z" />
    <glyph glyph-name="Omacron" unicode="&#x14c;" horiz-adv-x="825" 
d="M281 704h263q94 0 134 -28.5t63 -116.5q18 -74 18 -209q0 -315 -126 -345q-31 -9 -89 -9h-263q-94 0 -133 28t-62 116q-20 75 -20 210q0 35 1 59.5t4 67t11.5 72.5t21.5 62.5t35.5 54t52.5 29.5q32 9 89 9zM441 601h-57q-38 0 -55 -4t-31 -16q-21 -23 -30 -75
q-10 -51 -10 -156t10 -155q9 -54 30 -75q11 -12 31 -17q17 -4 55 -4h57q63 0 86 20q20 22 31 76q9 53 9 155t-9 156q-12 60 -35 77.5t-82 17.5zM228 779v83h370v-83h-370z" />
    <glyph glyph-name="omacron" unicode="&#x14d;" horiz-adv-x="686" 
d="M251 565h184q81 0 121 -26.5t59 -98.5q13 -63 13 -161q0 -39 -1 -63t-6.5 -64t-16.5 -65.5t-33.5 -49.5t-54.5 -33t-81 -9h-184q-77 0 -121 27.5t-58 97.5q-14 54 -14 160q0 188 56 244q44 41 137 41zM368 473h-50q-38 0 -53.5 -15.5t-21.5 -52.5q-3 -15 -5 -51
q-2 -42 -2 -74q0 -87 7 -123q10 -63 43 -67q12 -3 32 -3h50q19 0 32 3q31 4 44 66q6 39 6 123t-6 126q-4 19 -9 33q-11 22 -25.5 28.5t-41.5 6.5zM158 643v83h370v-83h-370z" />
    <glyph glyph-name="Obreve" unicode="&#x14e;" horiz-adv-x="825" 
d="M281 704h263q94 0 134 -28.5t63 -116.5q18 -74 18 -209q0 -315 -126 -345q-31 -9 -89 -9h-263q-94 0 -133 28t-62 116q-20 75 -20 210q0 35 1 59.5t4 67t11.5 72.5t21.5 62.5t35.5 54t52.5 29.5q32 9 89 9zM441 601h-57q-38 0 -55 -4t-31 -16q-21 -23 -30 -75
q-10 -51 -10 -156t10 -155q9 -54 30 -75q11 -12 31 -17q17 -4 55 -4h57q63 0 86 20q20 22 31 76q9 53 9 155t-9 156q-12 60 -35 77.5t-82 17.5zM424 763h-23q-94 0 -137 22q-44 23 -44 98v45h118v-19q0 -55 33 -58q13 -3 39 -3h5q25 0 39 3q33 3 33 58v19h118v-45
q0 -75 -44 -98q-43 -22 -137 -22z" />
    <glyph glyph-name="obreve" unicode="&#x14f;" horiz-adv-x="686" 
d="M251 565h184q81 0 121 -26.5t59 -98.5q13 -63 13 -161q0 -39 -1 -63t-6.5 -64t-16.5 -65.5t-33.5 -49.5t-54.5 -33t-81 -9h-184q-77 0 -121 27.5t-58 97.5q-14 54 -14 160q0 188 56 244q44 41 137 41zM368 473h-50q-38 0 -53.5 -15.5t-21.5 -52.5q-3 -15 -5 -51
q-2 -42 -2 -74q0 -87 7 -123q10 -63 43 -67q12 -3 32 -3h50q19 0 32 3q31 4 44 66q6 39 6 123t-6 126q-4 19 -9 33q-11 22 -25.5 28.5t-41.5 6.5zM354 627h-23q-94 0 -137 22q-44 23 -44 98v45h118v-19q0 -55 33 -58q13 -3 39 -3h5q25 0 39 3q33 3 33 58v19h118v-45
q0 -75 -44 -98q-43 -22 -137 -22z" />
    <glyph glyph-name="Ohungarumlaut" unicode="&#x150;" horiz-adv-x="825" 
d="M281 704h263q94 0 134 -28.5t63 -116.5q18 -74 18 -209q0 -315 -126 -345q-31 -9 -89 -9h-263q-94 0 -133 28t-62 116q-20 75 -20 210q0 35 1 59.5t4 67t11.5 72.5t21.5 62.5t35.5 54t52.5 29.5q32 9 89 9zM441 601h-57q-38 0 -55 -4t-31 -16q-21 -23 -30 -75
q-10 -51 -10 -156t10 -155q9 -54 30 -75q11 -12 31 -17q17 -4 55 -4h57q63 0 86 20q20 22 31 76q9 53 9 155t-9 156q-12 60 -35 77.5t-82 17.5zM361 767h-119l99 156h149zM572 767h-119l99 156h155z" />
    <glyph glyph-name="ohungarumlaut" unicode="&#x151;" horiz-adv-x="686" 
d="M251 565h184q81 0 121 -26.5t59 -98.5q13 -63 13 -161q0 -39 -1 -63t-6.5 -64t-16.5 -65.5t-33.5 -49.5t-54.5 -33t-81 -9h-184q-77 0 -121 27.5t-58 97.5q-14 54 -14 160q0 188 56 244q44 41 137 41zM368 473h-50q-38 0 -53.5 -15.5t-21.5 -52.5q-3 -15 -5 -51
q-2 -42 -2 -74q0 -87 7 -123q10 -63 43 -67q12 -3 32 -3h50q19 0 32 3q31 4 44 66q6 39 6 123t-6 126q-4 19 -9 33q-11 22 -25.5 28.5t-41.5 6.5zM291 631h-119l99 156h149zM502 631h-119l99 156h155z" />
    <glyph glyph-name="OE" unicode="&#x152;" horiz-adv-x="1131" 
d="M1062 0h-756q-101 0 -151.5 29t-71.5 119q-18 69 -18 202q0 33 0.5 53.5t3 57t7.5 60.5t15 55t24.5 51.5t37 38t50.5 24.5q37 10 103 10h756v-113h-335v-175h328v-113h-328v-186h335v-113zM395 109h142v482h-142q-64 0 -91.5 -17t-36.5 -81q-9 -53 -9 -143t9 -142
q9 -63 37 -81t91 -18z" />
    <glyph glyph-name="oe" unicode="&#x153;" horiz-adv-x="1063" 
d="M58 280q0 41 1 64t6.5 63t16.5 64.5t33.5 48t54.5 34.5q32 9 81 9h135q33 0 50.5 -1.5t42 -10.5t41.5 -27q14 -12 24 -30q27 43 60.5 54.5t94.5 11.5h137q75 0 113.5 -24t50.5 -92q9 -53 9 -157v-57h-372q2 -55 8 -78q9 -33 24.5 -43.5t48.5 -10.5h265v-98h-284
q-99 0 -134 35q-10 9 -23 29q-2 -2 -5.5 -7t-4.5 -8q-26 -33 -59.5 -42.5t-86.5 -9.5h-135q-79 0 -120.5 27t-58.5 99q-14 58 -14 157zM635 314h206q-2 70 -4 94q-6 52 -43 61q-18 2 -36 2h-41q-26 0 -42 -7t-23.5 -22.5t-10 -30t-4.5 -40.5q-2 -32 -2 -57zM236 280
q0 -84 7 -120q6 -39 21 -54q17 -15 54 -15h50q37 0 54 15q14 14 22 54q6 38 6 119q0 82 -6 123q-4 20 -9 33q-14 28 -35 33q-18 2 -32 2h-50q-16 0 -32 -2q-35 -9 -43 -66q-3 -14 -5 -50q-2 -40 -2 -72z" />
    <glyph glyph-name="Racute" unicode="&#x154;" horiz-adv-x="787" 
d="M101 0v700h416q59 0 93 -7q29 -6 49.5 -22.5t32 -36.5t18 -48.5t8 -51t1.5 -52.5q0 -42 -4.5 -72.5t-16.5 -61t-38 -50t-65 -25.5l150 -273h-199l-135 252h-120v-252h-190zM424 596h-133v-242h133q43 0 58 4q36 10 44 54q5 30 5 67q0 27 -1 41.5t-9 34.5t-24 32
q-18 9 -73 9zM456 764h-138l102 156h175z" />
    <glyph glyph-name="racute" unicode="&#x155;" horiz-adv-x="493" 
d="M80 0v560h177v-59q0 -13 9 -13q7 0 21 7l117 60q14 8 30 8h27v-168h-118q-26 0 -38 -1.5t-25 -7.5t-18 -20.5t-5 -39.5v-326h-177zM331 629h-138l102 156h175z" />
    <glyph glyph-name="Rcedilla" unicode="&#x156;" horiz-adv-x="787" 
d="M101 0v700h416q59 0 93 -7q29 -6 49.5 -22.5t32 -36.5t18 -48.5t8 -51t1.5 -52.5q0 -42 -4.5 -72.5t-16.5 -61t-38 -50t-65 -25.5l150 -273h-199l-135 252h-120v-252h-190zM424 596h-133v-242h133q43 0 58 4q36 10 44 54q5 30 5 67q0 27 -1 41.5t-9 34.5t-24 32
q-18 9 -73 9zM295 -273l51 215h148l-81 -215h-118z" />
    <glyph glyph-name="rcedilla" unicode="&#x157;" horiz-adv-x="493" 
d="M80 0v560h177v-59q0 -13 9 -13q7 0 21 7l117 60q14 8 30 8h27v-168h-118q-26 0 -38 -1.5t-25 -7.5t-18 -20.5t-5 -39.5v-326h-177zM43 -279l51 215h148l-81 -215h-118z" />
    <glyph glyph-name="Rcaron" unicode="&#x158;" horiz-adv-x="787" 
d="M101 0v700h416q59 0 93 -7q29 -6 49.5 -22.5t32 -36.5t18 -48.5t8 -51t1.5 -52.5q0 -42 -4.5 -72.5t-16.5 -61t-38 -50t-65 -25.5l150 -273h-199l-135 252h-120v-252h-190zM424 596h-133v-242h133q43 0 58 4q36 10 44 54q5 30 5 67q0 27 -1 41.5t-9 34.5t-24 32
q-18 9 -73 9zM476 764h-165l-146 156h180l66 -73q9 -11 13 -12q4 -3 9 -3t9 3q4 1 12 12l67 73h122l-122 -136q-20 -20 -45 -20z" />
    <glyph glyph-name="rcaron" unicode="&#x159;" horiz-adv-x="493" 
d="M80 0v560h177v-59q0 -13 9 -13q7 0 21 7l117 60q14 8 30 8h27v-168h-118q-26 0 -38 -1.5t-25 -7.5t-18 -20.5t-5 -39.5v-326h-177zM351 629h-165l-146 156h180l66 -73q9 -11 13 -12q5 -3 9 -3t9 3q5 2 12 12l67 73h122l-122 -136q-20 -20 -45 -20z" />
    <glyph glyph-name="Sacute" unicode="&#x15a;" horiz-adv-x="671" 
d="M241 700h365v-113h-282q-55 0 -55 -37q0 -14 12 -28q10 -11 37 -35l185 -158q38 -32 58 -51.5t40 -55.5t20 -73q0 -76 -49 -112.5t-128 -36.5h-379v113h295q55 0 55 39q0 17 -10 31q-8 11 -37 36l-188 159q-27 24 -48 45q-67 58 -67 132t49.5 109.5t126.5 35.5zM401 764
h-138l102 156h175z" />
    <glyph glyph-name="sacute" unicode="&#x15b;" horiz-adv-x="575" 
d="M201 560h313v-99h-225q-37 0 -37 -31q0 -13 7 -21q8 -11 22 -21l159 -122q31 -24 48 -39.5t31.5 -43t14.5 -58.5q0 -63 -41 -94t-106 -31h-334v98h246q21 0 30 10q9 9 9 24q0 13 -7 23q-7 9 -24 21l-159 122q-31 24 -47 39t-30.5 42t-14.5 58q0 62 40.5 92.5t104.5 30.5z
M352 626h-138l102 156h175z" />
    <glyph glyph-name="Scedilla" unicode="&#x15e;" horiz-adv-x="671" 
d="M444 0h-31l-66 -216h-170l118 216h-230v113h295q55 0 55 39q0 17 -10 31q-8 11 -37 36l-188 159q-27 24 -48 45q-67 58 -67 132t49.5 109.5t126.5 35.5h365v-113h-282q-55 0 -55 -37q0 -14 12 -28q10 -11 37 -35l185 -158q38 -32 58 -51.5t40 -55.5t20 -73
q0 -76 -49 -112.5t-128 -36.5z" />
    <glyph glyph-name="scedilla" unicode="&#x15f;" horiz-adv-x="575" 
d="M387 0h-30l-66 -216h-170l118 216h-186v98h246q21 0 30 10q9 9 9 24q0 13 -7 23q-7 9 -24 21l-159 122q-31 24 -47 39t-30.5 42t-14.5 58q0 62 40.5 92.5t104.5 30.5h313v-99h-225q-37 0 -37 -31q0 -13 7 -21q8 -11 22 -21l159 -122q31 -24 48 -39.5t31.5 -43t14.5 -58.5
q0 -63 -41 -94t-106 -31z" />
    <glyph glyph-name="Scaron" unicode="&#x160;" horiz-adv-x="671" 
d="M241 700h365v-113h-282q-55 0 -55 -37q0 -14 12 -28q10 -11 37 -35l185 -158q38 -32 58 -51.5t40 -55.5t20 -73q0 -76 -49 -112.5t-128 -36.5h-379v113h295q55 0 55 39q0 17 -10 31q-8 11 -37 36l-188 159q-27 24 -48 45q-67 58 -67 132t49.5 109.5t126.5 35.5zM421 764
h-165l-146 156h180l66 -73q9 -11 13 -12q5 -3 9 -3t9 3q5 1 12 12l67 73h122l-122 -136q-20 -20 -45 -20z" />
    <glyph glyph-name="scaron" unicode="&#x161;" horiz-adv-x="575" 
d="M201 560h313v-99h-225q-37 0 -37 -31q0 -13 7 -21q8 -11 22 -21l159 -122q31 -24 48 -39.5t31.5 -43t14.5 -58.5q0 -63 -41 -94t-106 -31h-334v98h246q21 0 30 10q9 9 9 24q0 13 -7 23q-7 9 -24 21l-159 122q-31 24 -47 39t-30.5 42t-14.5 58q0 62 40.5 92.5t104.5 30.5z
M372 626h-165l-146 156h180l66 -73q9 -11 13 -12q4 -3 9 -3t9 3q4 1 12 12l67 73h122l-122 -136q-20 -20 -45 -20z" />
    <glyph glyph-name="Tcedilla" unicode="&#x162;" horiz-adv-x="696" 
d="M38 587v113h620v-113h-215v-587h-190v587h-215zM224 -279l51 215h148l-81 -215h-118z" />
    <glyph glyph-name="Tcedilla" unicode="&#x21a;" horiz-adv-x="696" 
d="M38 587v113h620v-113h-215v-587h-190v587h-215zM224 -279l51 215h148l-81 -215h-118z" />
    <glyph glyph-name="tcedilla" unicode="&#x163;" horiz-adv-x="492" 
d="M31 462v98h125v130h177v-130h143v-98h-143v-462h-177v462h-125zM120 -279l51 215h148l-81 -215h-118z" />
    <glyph glyph-name="tcedilla" unicode="&#x21b;" horiz-adv-x="492" 
d="M31 462v98h125v130h177v-130h143v-98h-143v-462h-177v462h-125zM120 -279l51 215h148l-81 -215h-118z" />
    <glyph glyph-name="Tcaron" unicode="&#x164;" horiz-adv-x="696" 
d="M38 587v113h620v-113h-215v-587h-190v587h-215zM420 764h-165l-146 156h180l66 -73q9 -11 13 -12q4 -3 9 -3t9 3q4 1 12 12l67 73h122l-122 -136q-20 -20 -45 -20z" />
    <glyph glyph-name="tcaron" unicode="&#x165;" horiz-adv-x="492" 
d="M31 462v98h125v130h177v-130h143v-98h-143v-462h-177v462h-125zM397 609v203h127l-26 -203h-101z" />
    <glyph glyph-name="Umacron" unicode="&#x16a;" horiz-adv-x="822" 
d="M90 254v446h190v-443q0 -57 5 -89q6 -40 30.5 -52.5t71.5 -12.5h55q46 0 71.5 12.5t31.5 52.5q4 25 4 89v443h183v-446q0 -92 -11 -144q-8 -36 -23.5 -59.5t-40.5 -34.5t-50.5 -15t-62.5 -4h-265q-79 0 -120.5 22.5t-56.5 90.5q-12 50 -12 144zM229 774v83h370v-83h-370z
" />
    <glyph glyph-name="umacron" unicode="&#x16b;" horiz-adv-x="707" 
d="M627 560v-560h-390q-91 0 -125 39.5t-34 131.5v389h177v-371q0 -27 3 -43q4 -46 67 -46h125v460h177zM167 638v83h370v-83h-370z" />
    <glyph glyph-name="Ubreve" unicode="&#x16c;" horiz-adv-x="822" 
d="M90 254v446h190v-443q0 -57 5 -89q6 -40 30.5 -52.5t71.5 -12.5h55q46 0 71.5 12.5t31.5 52.5q4 25 4 89v443h183v-446q0 -92 -11 -144q-8 -36 -23.5 -59.5t-40.5 -34.5t-50.5 -15t-62.5 -4h-265q-79 0 -120.5 22.5t-56.5 90.5q-12 50 -12 144zM425 758h-23
q-94 0 -137 22q-44 23 -44 98v45h118v-19q0 -55 33 -58q14 -3 39 -3h5q26 0 39 3q33 3 33 58v19h118v-45q0 -75 -44 -98q-43 -22 -137 -22z" />
    <glyph glyph-name="ubreve" unicode="&#x16d;" horiz-adv-x="707" 
d="M627 560v-560h-390q-91 0 -125 39.5t-34 131.5v389h177v-371q0 -27 3 -43q4 -46 67 -46h125v460h177zM364 616h-23q-94 0 -137 22q-44 23 -44 98v45h118v-19q0 -55 33 -58q13 -3 39 -3h5q25 0 39 3q33 3 33 58v19h118v-45q0 -75 -44 -98q-43 -22 -137 -22z" />
    <glyph glyph-name="Uring" unicode="&#x16e;" horiz-adv-x="822" 
d="M90 254v446h190v-443q0 -57 5 -89q6 -40 30.5 -52.5t71.5 -12.5h55q46 0 71.5 12.5t31.5 52.5q4 25 4 89v443h183v-446q0 -92 -11 -144q-8 -36 -23.5 -59.5t-40.5 -34.5t-50.5 -15t-62.5 -4h-265q-79 0 -120.5 22.5t-56.5 90.5q-12 50 -12 144zM331 982h166
q61 0 85.5 -23.5t24.5 -88.5q0 -60 -26.5 -85.5t-83.5 -25.5h-166q-33 0 -50 4q-32 5 -46 36.5t-14 70.5q0 94 61 108q17 4 49 4zM438 932h-48q-14 0 -22.5 -1.5t-15.5 -9t-9 -21.5q-3 -14 -3 -30t3 -29q2 -20 14 -25.5t33 -5.5h48q22 0 33 5.5t15 25.5q2 18 2 29
q0 12 -2 30q-5 20 -16 26t-32 6z" />
    <glyph glyph-name="uring" unicode="&#x16f;" horiz-adv-x="707" 
d="M627 560v-560h-390q-91 0 -125 39.5t-34 131.5v389h177v-371q0 -27 3 -43q4 -46 67 -46h125v460h177zM269 840h166q61 0 85.5 -23.5t24.5 -88.5q0 -60 -26.5 -85.5t-83.5 -25.5h-166q-33 0 -50 4q-32 5 -46 36.5t-14 70.5q0 94 61 108q17 4 49 4zM376 790h-48
q-14 0 -22.5 -1.5t-15.5 -9t-9 -21.5q-3 -14 -3 -30t3 -29q2 -20 14 -25.5t33 -5.5h48q22 0 33 5.5t15 25.5q2 18 2 29q0 12 -2 30q-5 20 -16 26t-32 6z" />
    <glyph glyph-name="Uhungarumlaut" unicode="&#x170;" horiz-adv-x="822" 
d="M90 254v446h190v-443q0 -57 5 -89q6 -40 30.5 -52.5t71.5 -12.5h55q46 0 71.5 12.5t31.5 52.5q4 25 4 89v443h183v-446q0 -92 -11 -144q-8 -36 -23.5 -59.5t-40.5 -34.5t-50.5 -15t-62.5 -4h-265q-79 0 -120.5 22.5t-56.5 90.5q-12 50 -12 144zM369 762h-119l99 156h149z
M580 762h-119l99 156h155z" />
    <glyph glyph-name="uhungarumlaut" unicode="&#x171;" horiz-adv-x="707" 
d="M627 560v-560h-390q-91 0 -125 39.5t-34 131.5v389h177v-371q0 -27 3 -43q4 -46 67 -46h125v460h177zM300 620h-119l99 156h149zM511 620h-119l99 156h155z" />
    <glyph glyph-name="Uogonek" unicode="&#x172;" horiz-adv-x="822" 
d="M526 -150v-66h-191q-62 0 -62 47q0 24 23 57l70 109h-87q-79 0 -120.5 22.5t-56.5 90.5q-12 50 -12 144v446h190v-443q0 -57 5 -89q6 -40 30.5 -52.5t71.5 -12.5h55q46 0 71.5 12.5t31.5 52.5q4 25 4 89v443h183v-446q0 -92 -11 -144q-8 -36 -23.5 -59.5t-40.5 -34.5
t-50.5 -15t-62.5 -4h-76l-41 -116q-6 -18 -6 -22q0 -9 12 -9h93z" />
    <glyph glyph-name="uogonek" unicode="&#x173;" horiz-adv-x="707" 
d="M409 -107l91 107h-263q-91 0 -125 39.5t-34 131.5v389h177v-371q0 -27 3 -43q4 -46 67 -46h125v460h177v-560l-80 -118q-5 -9 -6 -11q-3 -14 8 -14h93v-71h-199q-64 0 -64 48q0 22 30 59z" />
    <glyph glyph-name="Wcircumflex" unicode="&#x174;" horiz-adv-x="1151" 
d="M197 -3l-153 703h192l108 -534q1 -7 5 -9q2 -2 8 -2q11 0 13 11l116 534h210q22 0 31 -5.5t14 -26.5l100 -502q2 -11 13 -11t13 11l110 534h139l-145 -668q-4 -22 -14 -28.5t-33 -6.5h-219l-111 535q-2 8 -3 9q-2 1 -9 1t-8 -1q-2 -1 -4 -9l-112 -500q-4 -22 -14 -28
q-8 -7 -33 -7h-214zM486 764h-122l141 156h166q17 0 26 -4q6 -3 19 -16l126 -136h-180l-66 72q-9 10 -13 13q-5 3 -9 3q-10 0 -21 -16z" />
    <glyph glyph-name="wcircumflex" unicode="&#x175;" horiz-adv-x="999" 
d="M162 -1l-130 561h184l90 -414q1 -6 3 -8q15 1 16 8l97 414h191q29 0 36 -28l95 -387q1 -6 4 -7q1 0 3 -0.5t3 -0.5q7 0 9 7l84 416h122l-115 -534q-3 -16 -11.5 -21.5t-26.5 -5.5h-205l-101 409q-1 5 -3 7q-15 -1 -16 -7l-90 -382q-4 -16 -12.5 -21.5t-26.5 -5.5h-200z
M410 626h-122l141 156h166q17 0 26 -4q6 -3 19 -16l126 -136h-180l-66 72q-9 10 -13 13q-5 3 -9 3q-10 0 -21 -16z" />
    <glyph glyph-name="Ycircumflex" unicode="&#x176;" horiz-adv-x="730" 
d="M271 227l-250 473h206l159 -316q3 -10 13 -10t13 10l159 316h147l-248 -473v-227h-199v227zM268 762h-122l141 156h166q17 0 26 -4q6 -3 19 -16l126 -136h-180l-66 72q-9 10 -13 13q-5 3 -9 3q-10 0 -21 -16z" />
    <glyph glyph-name="ycircumflex" unicode="&#x177;" horiz-adv-x="625" 
d="M250 -8l-234 568h190l127 -345q3 -11 6 -12q1 -3 6 -3q7 4 12 15l117 345h135l-263 -736h-134l38 105q5 15 6 20q2 10 2 13q0 12 -8 30zM223 626h-122l141 156h166q17 0 26 -4q6 -3 19 -16l126 -136h-180l-66 72q-9 10 -13 13t-9 3q-10 0 -21 -16z" />
    <glyph glyph-name="Ydieresis" unicode="&#x178;" horiz-adv-x="730" 
d="M271 227l-250 473h206l159 -316q3 -10 13 -10t13 10l159 316h147l-248 -473v-227h-199v227zM207 766v117h137v-117h-137zM426 766v117h137v-117h-137z" />
    <glyph glyph-name="Zacute" unicode="&#x179;" horiz-adv-x="711" 
d="M77 587v113h576v-80q0 -20 -3 -27q-3 -9 -16 -25l-321 -422q-13 -19 -13 -24q0 -9 15 -9h340v-113h-586v80q0 18 4 27q3 8 15 25l322 422q13 19 13 24q0 9 -15 9h-331zM420 764h-138l102 156h175z" />
    <glyph glyph-name="zacute" unicode="&#x17a;" horiz-adv-x="602" 
d="M56 461v99h499v-75q0 -13 -2 -23q-3 -7 -16 -23l-257 -315q-5 -6 -6 -10q-3 -4 -3 -8q0 -8 13 -8h275v-98h-506v75q0 17 3 24t16 23l257 314q3 4 7 10q2 6 2 8q0 7 -13 7h-269zM362 626h-138l102 156h175z" />
    <glyph glyph-name="Zdotaccent" unicode="&#x17b;" horiz-adv-x="711" 
d="M77 587v113h576v-80q0 -20 -3 -27q-3 -9 -16 -25l-321 -422q-13 -19 -13 -24q0 -9 15 -9h340v-113h-586v80q0 18 4 27q3 8 15 25l322 422q13 19 13 24q0 9 -15 9h-331zM297 768v121h141v-121h-141z" />
    <glyph glyph-name="zdotaccent" unicode="&#x17c;" horiz-adv-x="602" 
d="M56 461v99h499v-75q0 -13 -2 -23q-3 -7 -16 -23l-257 -315q-5 -6 -6 -10q-3 -4 -3 -8q0 -8 13 -8h275v-98h-506v75q0 17 3 24t16 23l257 314q3 4 7 10q2 6 2 8q0 7 -13 7h-269zM240 630v121h141v-121h-141z" />
    <glyph glyph-name="Zcaron" unicode="&#x17d;" horiz-adv-x="711" 
d="M77 587v113h576v-80q0 -20 -3 -27q-3 -9 -16 -25l-321 -422q-13 -19 -13 -24q0 -9 15 -9h340v-113h-586v80q0 18 4 27q3 8 15 25l322 422q13 19 13 24q0 9 -15 9h-331zM439 764h-165l-146 156h180l66 -73q9 -11 13 -12q5 -3 9 -3t9 3q5 1 12 12l67 73h122l-122 -136
q-20 -20 -45 -20z" />
    <glyph glyph-name="zcaron" unicode="&#x17e;" horiz-adv-x="602" 
d="M56 461v99h499v-75q0 -13 -2 -23q-3 -7 -16 -23l-257 -315q-5 -6 -6 -10q-3 -4 -3 -8q0 -8 13 -8h275v-98h-506v75q0 17 3 24t16 23l257 314q3 4 7 10q2 6 2 8q0 7 -13 7h-269zM382 626h-165l-146 156h180l66 -73q9 -11 13 -12q4 -3 9 -3t9 3q4 1 12 12l67 73h122
l-122 -136q-20 -20 -45 -20z" />
    <glyph glyph-name="Aringacute" unicode="&#x1fa;" horiz-adv-x="783" 
d="M166 0h-138l228 624q-36 10 -47.5 38t-11.5 71q0 64 25.5 88t85.5 24h181q63 0 86 -24t23 -88q0 -43 -10.5 -69t-44.5 -38l212 -626h-200l-41 130h-302zM315 733q0 -18 4 -30q3 -15 10 -22q11 -9 38 -9h62q28 0 39 9q13 13 13 52q0 35 -10.5 48t-41.5 13h-62
q-31 0 -41.5 -13.5t-10.5 -47.5zM356 541l-105 -298h227l-94 298q-1 3 -4 10q-4 2 -10 2q-7 0 -9 -2q0 -1 -1 -2.5t-2 -3.5zM467 896h-138l102 156h175z" />
    <glyph glyph-name="aringacute" unicode="&#x1fb;" horiz-adv-x="677" 
d="M89 461v99h353q91 0 125 -39.5t34 -132.5v-388h-400q-40 0 -67 5q-76 13 -76 163q0 30 2 50.5t8.5 45.5t23 41.5t41.5 25.5q19 6 68 8l223 7v26q0 21 -2 43q-6 29 -21 37.5t-47 8.5h-265zM424 92v174l-131 -5q-21 -2 -28 -4q-10 -3 -16 -10q-16 -16 -16 -70q0 -57 16 -73
q6 -8 16 -9q9 -3 28 -3h131zM255 846h166q61 0 85.5 -23.5t24.5 -88.5q0 -60 -26.5 -85.5t-83.5 -25.5h-166q-33 0 -50 4q-32 5 -46 36.5t-14 70.5q0 94 61 108q17 4 49 4zM362 796h-48q-14 0 -22.5 -1.5t-15.5 -9t-9 -21.5q-3 -14 -3 -30t3 -29q2 -20 14 -25.5t33 -5.5h48
q22 0 33 5.5t15 25.5q2 18 2 29q0 12 -2 30q-5 20 -16 26t-32 6zM407 897h-138l102 156h175z" />
    <glyph glyph-name="AEacute" unicode="&#x1fc;" horiz-adv-x="1126" 
d="M5 0l423 700h630v-113h-336v-175h329v-113h-329v-186h336v-113h-526v130h-288l-77 -130h-162zM506 575l-196 -332h222v342h-12q-8 0 -14 -10zM701 764h-138l102 156h175z" />
    <glyph glyph-name="aeacute" unicode="&#x1fd;" horiz-adv-x="1044" 
d="M89 461v99h277q98 0 133 -35q17 -19 25 -34q29 45 62 57t94 12h137q75 0 114 -23.5t50 -91.5q9 -53 9 -156v-53h-373q4 -102 28 -123q15 -15 54 -15h265v-98h-284q-60 0 -97 12t-60 54q-1 -2 -5 -7.5t-6 -8.5q-26 -33 -58.5 -41.5t-87.5 -8.5h-157q-88 0 -115 27
q-36 36 -36 140q0 142 76 162q24 6 70 6h222q-2 53 -7 76q-8 26 -19 36q-9 9 -22 12q-18 2 -32 2h-257zM617 321h205q-2 64 -4 89q-6 51 -42 59q-18 2 -36 2h-42q-37 0 -54 -15q-14 -14 -20 -44q-5 -27 -7 -91zM295 92h51q20 0 33 3q32 3 41 57q5 29 7 102h-132
q-29 0 -44.5 -7.5t-20.5 -32.5q-4 -16 -4 -39q0 -22 4 -39q4 -27 19.5 -35.5t45.5 -8.5zM593 626h-138l102 156h175z" />
    <glyph glyph-name="Oslashacute" unicode="&#x1fe;" horiz-adv-x="825" 
d="M246 -67h-119l40 80q-101 46 -101 337q0 35 1 59.5t4 67t11.5 72.5t21.5 62.5t35.5 54t52.5 29.5q32 9 89 9h266l32 63h118l-40 -79q102 -43 102 -338q0 -37 -0.5 -60t-4 -66t-11.5 -72.5t-21 -62.5t-35.5 -54t-52.5 -30q-33 -9 -90 -9h-266zM448 603h-71
q-60 0 -83.5 -17.5t-34.5 -78.5q-9 -54 -9 -157q0 -145 18 -194l228 444q-16 3 -48 3zM377 97h71q39 0 56 4q20 5 31 17q21 20 32 75q9 54 9 157q0 77 -4 120q-4 46 -15 75l-228 -445q24 -3 48 -3zM468 767h-138l102 156h175z" />
    <glyph glyph-name="oslashacute" unicode="&#x1ff;" horiz-adv-x="686" 
d="M239 -5l-31 -53h-99l39 69q-59 25 -76 109q-14 54 -14 160q0 188 56 244q44 41 137 41h194l30 52h99l-39 -67q35 -16 52 -42t28 -68q13 -63 13 -161q0 -39 -1 -63t-6.5 -64t-16.5 -65.5t-33.5 -49.5t-54.5 -33t-81 -9h-196zM389 471h-80q-15 0 -33 -2q-35 -8 -43 -65
q-3 -15 -5 -51q-2 -42 -2 -73q0 -57 3 -91q1 -34 8 -55l162 336q-3 1 -10 1zM296 89h80q20 0 34 3q31 3 43 65q6 37 6 122q0 111 -12 150l-162 -339q3 -1 11 -1zM395 631h-138l102 156h175z" />
    <glyph glyph-name="Scommaaccent" unicode="&#x218;" horiz-adv-x="671" 
d="M241 700h365v-113h-282q-55 0 -55 -37q0 -14 12 -28q10 -11 37 -35l185 -158q38 -32 58 -51.5t40 -55.5t20 -73q0 -76 -49 -112.5t-128 -36.5h-379v113h295q55 0 55 39q0 17 -10 31q-8 11 -37 36l-188 159q-27 24 -48 45q-67 58 -67 132t49.5 109.5t126.5 35.5zM234 -279
l51 215h148l-81 -215h-118z" />
    <glyph glyph-name="scommaaccent" unicode="&#x219;" horiz-adv-x="575" 
d="M201 560h313v-99h-225q-37 0 -37 -31q0 -13 7 -21q8 -11 22 -21l159 -122q31 -24 48 -39.5t31.5 -43t14.5 -58.5q0 -63 -41 -94t-106 -31h-334v98h246q21 0 30 10q9 9 9 24q0 13 -7 23q-7 9 -24 21l-159 122q-31 24 -47 39t-30.5 42t-14.5 58q0 62 40.5 92.5t104.5 30.5z
M182 -279l51 215h148l-81 -215h-118z" />
    <glyph glyph-name="schwa" unicode="&#x259;" horiz-adv-x="660" 
d="M423 -1h-196q-56 0 -95 14t-55 56q-19 42 -21 115q-2 50 -2 90v56h372q-2 54 -7 78q-9 34 -24 43.5t-50 9.5h-265v99h343q72 0 110 -25.5t55 -91.5q14 -58 14 -164q0 -30 -0.5 -49t-3.5 -53t-10 -57t-18 -48.5t-30.5 -41.5t-44.5 -23q-32 -8 -72 -8zM304 89h42q18 0 32 3
q33 3 42 58q5 28 7 95h-205q2 -68 4 -92q1 -23 11 -41t31 -20q14 -3 36 -3z" />
    <glyph glyph-name="doublevav" unicode="&#x2bb;" horiz-adv-x="297" 
d="M254 700l-47 -332h-174l92 332h129z" />
    <glyph glyph-name="circumflex" unicode="&#x2c6;" 
d="M133 620h-122l141 156h166q17 0 26 -4q6 -3 19 -16l126 -136h-180l-66 72q-9 10 -13 13t-9 3q-10 0 -21 -16z" />
    <glyph glyph-name="caron" unicode="&#x2c7;" 
d="M322 620h-165l-146 156h180l66 -73q9 -11 13 -12q4 -3 9 -3t9 3q4 1 12 12l67 73h122l-122 -136q-20 -20 -45 -20z" />
    <glyph glyph-name="breve" unicode="&#x2d8;" 
d="M261 616h-23q-94 0 -137 22q-44 23 -44 98v45h118v-19q0 -55 33 -58q14 -3 39 -3h5q26 0 39 3q33 3 33 58v19h118v-45q0 -75 -44 -98q-43 -22 -137 -22z" />
    <glyph glyph-name="dotaccent" unicode="&#x2d9;" 
d="M180 624v121h141v-121h-141z" />
    <glyph glyph-name="ring" unicode="&#x2da;" 
d="M167 840h166q61 0 85.5 -23.5t24.5 -88.5q0 -60 -26.5 -85.5t-83.5 -25.5h-166q-33 0 -50 4q-32 5 -46 36.5t-14 70.5q0 94 61 108q17 4 49 4zM274 790h-48q-14 0 -22.5 -1.5t-15.5 -9t-9 -21.5q-3 -14 -3 -30t3 -29q2 -20 14 -25.5t33 -5.5h48q22 0 33 5.5t15 25.5
q2 18 2 29q0 12 -2 30q-5 20 -16 26t-32 6z" />
    <glyph glyph-name="ogonek" unicode="&#x2db;" 
d="M148 -107l90 107h127l-80 -118q-5 -9 -6 -11q-3 -14 8 -14h94v-71h-200q-63 0 -63 48q0 25 30 59z" />
    <glyph glyph-name="tilde" unicode="&#x2dc;" 
d="M128 618h-73v95q0 82 74 82h5q18 0 37 -6q6 -2 20 -7.5t23 -9.5l100 -38q21 -10 30 -12q7 -3 14 -3q6 0 10 4q4 3 4 15v57h73v-95q0 -82 -74 -82h-5q-18 0 -36 6q-20 6 -44 16l-100 38q-14 7 -29 13q-9 3 -15 3t-10 -3q-4 -4 -4 -17v-56z" />
    <glyph glyph-name="hungarumlaut" unicode="&#x2dd;" 
d="M145 620h-119l99 156h149zM356 620h-119l99 156h155z" />
    <glyph glyph-name="commasubnosp" unicode="&#x326;" 
d="M149 -279l51 215h148l-81 -215h-118z" />
    <glyph glyph-name="Wgrave" unicode="&#x1e80;" horiz-adv-x="1151" 
d="M197 -3l-153 703h192l108 -534q1 -7 5 -9q2 -2 8 -2q11 0 13 11l116 534h210q22 0 31 -5.5t14 -26.5l100 -502q2 -11 13 -11t13 11l110 534h139l-145 -668q-4 -22 -14 -28.5t-33 -6.5h-219l-111 535q-2 8 -3 9q-2 1 -9 1t-8 -1q-2 -1 -4 -9l-112 -500q-4 -22 -14 -28
q-8 -7 -33 -7h-214zM570 920l102 -156h-138l-139 156h175z" />
    <glyph glyph-name="wgrave" unicode="&#x1e81;" horiz-adv-x="999" 
d="M162 -1l-130 561h184l90 -414q1 -6 3 -8q15 1 16 8l97 414h191q29 0 36 -28l95 -387q1 -6 4 -7q1 0 3 -0.5t3 -0.5q7 0 9 7l84 416h122l-115 -534q-3 -16 -11.5 -21.5t-26.5 -5.5h-205l-101 409q-1 5 -3 7q-15 -1 -16 -7l-90 -382q-4 -16 -12.5 -21.5t-26.5 -5.5h-200z
M502 782l102 -156h-138l-139 156h175z" />
    <glyph glyph-name="Wacute" unicode="&#x1e82;" horiz-adv-x="1151" 
d="M197 -3l-153 703h192l108 -534q1 -7 5 -9q2 -2 8 -2q11 0 13 11l116 534h210q22 0 31 -5.5t14 -26.5l100 -502q2 -11 13 -11t13 11l110 534h139l-145 -668q-4 -22 -14 -28.5t-33 -6.5h-219l-111 535q-2 8 -3 9q-2 1 -9 1t-8 -1q-2 -1 -4 -9l-112 -500q-4 -22 -14 -28
q-8 -7 -33 -7h-214zM671 764h-138l102 156h175z" />
    <glyph glyph-name="wacute" unicode="&#x1e83;" horiz-adv-x="999" 
d="M162 -1l-130 561h184l90 -414q1 -6 3 -8q15 1 16 8l97 414h191q29 0 36 -28l95 -387q1 -6 4 -7q1 0 3 -0.5t3 -0.5q7 0 9 7l84 416h122l-115 -534q-3 -16 -11.5 -21.5t-26.5 -5.5h-205l-101 409q-1 5 -3 7q-15 -1 -16 -7l-90 -382q-4 -16 -12.5 -21.5t-26.5 -5.5h-200z
M604 626h-138l102 156h175z" />
    <glyph glyph-name="Wdieresis" unicode="&#x1e84;" horiz-adv-x="1151" 
d="M197 -3l-153 703h192l108 -534q1 -7 5 -9q2 -2 8 -2q11 0 13 11l116 534h210q22 0 31 -5.5t14 -26.5l100 -502q2 -11 13 -11t13 11l110 534h139l-145 -668q-4 -22 -14 -28.5t-33 -6.5h-219l-111 535q-2 8 -3 9q-2 1 -9 1t-8 -1q-2 -1 -4 -9l-112 -500q-4 -22 -14 -28
q-8 -7 -33 -7h-214zM425 768v117h137v-117h-137zM644 768v117h137v-117h-137z" />
    <glyph glyph-name="wdieresis" unicode="&#x1e85;" horiz-adv-x="999" 
d="M162 -1l-130 561h184l90 -414q1 -6 3 -8q15 1 16 8l97 414h191q29 0 36 -28l95 -387q1 -6 4 -7q1 0 3 -0.5t3 -0.5q7 0 9 7l84 416h122l-115 -534q-3 -16 -11.5 -21.5t-26.5 -5.5h-205l-101 409q-1 5 -3 7q-15 -1 -16 -7l-90 -382q-4 -16 -12.5 -21.5t-26.5 -5.5h-200z
M349 630v117h137v-117h-137zM568 630v117h137v-117h-137z" />
    <glyph glyph-name="Germandbls" unicode="&#x1e9e;" horiz-adv-x="794" 
d="M280 0h-190v443q0 101 10 149q8 38 26 61.5t50 33t55.5 11.5t67.5 2h428v-90q0 -30 -15 -60q-2 -3 -7.5 -13t-9.5 -16l-54 -91q-9 -16 -9 -28q0 -8 3 -15q3 -10 13 -25l70 -115q24 -37 34 -67q8 -29 8 -55q0 -65 -44.5 -95t-113.5 -30h-235v105h148q29 0 40 10
q12 9 12 26q0 13 -6 26q-7 13 -16 28l-65 105q-13 21 -17 36q-6 15 -6 30q0 29 21 64l55 97q17 33 17 60q-5 8 -14 8h-149q-33 0 -52 -3q-21 -5 -31 -16q-14 -14 -19 -44q-5 -32 -5 -89v-443z" />
    <glyph glyph-name="Ygrave" unicode="&#x1ef2;" horiz-adv-x="730" 
d="M271 227l-250 473h206l159 -316q3 -10 13 -10t13 10l159 316h147l-248 -473v-227h-199v227zM360 918l102 -156h-138l-139 156h175z" />
    <glyph glyph-name="ygrave" unicode="&#x1ef3;" horiz-adv-x="625" 
d="M250 -8l-234 568h190l127 -345q3 -11 6 -12q1 -3 6 -3q7 4 12 15l117 345h135l-263 -736h-134l38 105q5 15 6 20q2 10 2 13q0 12 -8 30zM331 779l102 -156h-138l-139 156h175z" />
    <glyph glyph-name="enspace" unicode="&#x2002;" 
 />
    <glyph glyph-name="emspace" unicode="&#x2003;" horiz-adv-x="1000" 
 />
    <glyph glyph-name="thirdemspace" unicode="&#x2004;" horiz-adv-x="333" 
 />
    <glyph glyph-name="fourperemspace" unicode="&#x2005;" horiz-adv-x="250" 
 />
    <glyph glyph-name="figurespace" unicode="&#x2007;" horiz-adv-x="791" 
 />
    <glyph glyph-name="punctuationspace" unicode="&#x2008;" horiz-adv-x="316" 
 />
    <glyph glyph-name="thinspace" unicode="&#x2009;" horiz-adv-x="133" 
 />
    <glyph glyph-name="hairspace" unicode="&#x200a;" horiz-adv-x="75" 
 />
    <glyph glyph-name="ZWS" unicode="&#x200b;" horiz-adv-x="0" 
 />
    <glyph glyph-name="endash" unicode="&#x2013;" horiz-adv-x="580" 
d="M47 218v125h486v-125h-486z" />
    <glyph glyph-name="emdash" unicode="&#x2014;" horiz-adv-x="950" 
d="M47 218v125h856v-125h-856z" />
    <glyph glyph-name="quoteleft" unicode="&#x2018;" horiz-adv-x="297" 
d="M254 700l-47 -332h-174l92 332h129z" />
    <glyph glyph-name="quoteright" unicode="&#x2019;" horiz-adv-x="297" 
d="M44 368l46 332h175l-92 -332h-129z" />
    <glyph glyph-name="quotesinglbase" unicode="&#x201a;" horiz-adv-x="303" 
d="M37 -170l46 332h175l-92 -332h-129z" />
    <glyph glyph-name="quotedblleft" unicode="&#x201c;" horiz-adv-x="522" 
d="M248 700l-47 -332h-168l92 332h123zM479 700l-47 -332h-168l91 332h124z" />
    <glyph glyph-name="quotedblright" unicode="&#x201d;" horiz-adv-x="522" 
d="M274 368l47 332h168l-91 -332h-124zM44 368l46 332h169l-92 -332h-123z" />
    <glyph glyph-name="quotedblbase" unicode="&#x201e;" horiz-adv-x="528" 
d="M267 -170l47 332h168l-91 -332h-124zM37 -170l46 332h169l-92 -332h-123z" />
    <glyph glyph-name="dagger" unicode="&#x2020;" horiz-adv-x="429" 
d="M148 604v111h133v-111h109v-87h-109v-244h-133v244h-108v87h108z" />
    <glyph glyph-name="daggerdbl" unicode="&#x2021;" horiz-adv-x="441" 
d="M154 604v111h133v-111h109v-87h-109v-130h109v-87h-109v-110h-133v110h-108v87h108v130h-108v87h108z" />
    <glyph glyph-name="bullet" unicode="&#x2022;" horiz-adv-x="422" 
d="M69 319q0 104 50 130q6 3 20 7q29 4 66 4h12q46 0 66 -4q71 -14 71 -137t-71 -137q-20 -4 -66 -4h-12q-27 0 -38 1q-19 2 -28 4q-11 1 -20 7q-50 25 -50 129z" />
    <glyph glyph-name="ellipsis" unicode="&#x2026;" horiz-adv-x="936" 
d="M69 0v162h178v-162h-178zM379 0v162h178v-162h-178zM689 0v162h178v-162h-178z" />
    <glyph glyph-name="uni202F" unicode="&#x202f;" horiz-adv-x="133" 
 />
    <glyph glyph-name="guilsinglleft" unicode="&#x2039;" horiz-adv-x="379" 
d="M50 315l121 164h171l-123 -166q-2 -4 -4.5 -7.5l-4 -5.5l-3 -4t-1.5 -3q-3 -5 -3 -7t3 -7q0 -1 1.5 -3l3 -4l4 -5.5t4.5 -7.5l125 -172h-174l-120 164q-9 13 -12 19t-3 13t3 14q3 6 12 18z" />
    <glyph glyph-name="guilsinglright" unicode="&#x203a;" horiz-adv-x="379" 
d="M329 251l-121 -164h-171l123 166q3 5 6 9t5 7t3 4q2 6 2 7t-2 7q-1 1 -3 4t-5 7t-6 9l-125 172h174l120 -164q7 -12 12 -18q3 -8 3 -14q0 -7 -3 -13t-12 -19z" />
    <glyph glyph-name="Euro" unicode="&#x20ac;" horiz-adv-x="774" 
d="M148 207h-100v100h93q-1 7 -1 21v60h-92v99h99q20 176 119 205q34 8 89 8h359v-110h-267q-36 0 -54 -3q-53 -8 -66 -116h295v-81h-301v-63q0 -15 1 -22h300v-81h-295q13 -103 66 -111q18 -3 54 -3h267v-110h-359q-80 0 -118.5 18t-64.5 82q-16 40 -24 107z" />
    <glyph glyph-name="uni20B9" unicode="&#x20b9;" horiz-adv-x="749" 
d="M445 416h-360v85h361q-1 27 -8 49q-8 20 -17 29q-2 2 -5.5 5t-4.5 4q-6 3 -15 6q-25 4 -57 4h-254v102h625v-102h-112q19 -42 21 -89h91v-101h-91q-6 -61 -22.5 -98t-49.5 -55t-68.5 -23t-96.5 -5h-44l319 -216v-11h-240l-332 234v86h239q56 0 71 7q28 10 37.5 31
t12.5 58z" />
    <glyph glyph-name="recordright" unicode="&#x2117;" horiz-adv-x="887" 
d="M340 721h207q108 0 163.5 -34.5t89.5 -129.5q26 -75 26 -207q0 -226 -86 -312q-59 -59 -193 -59h-207q-108 0 -163 34.5t-89 129.5q-27 72 -27 207q0 225 87 312q59 59 192 59zM540 662h-193q-88 0 -129.5 -28.5t-63.5 -110.5q-18 -67 -18 -173q0 -205 66 -271
q41 -41 145 -41h193q89 0 130 28.5t63 110.5q18 68 18 173q0 205 -66 271q-26 26 -60.5 33.5t-84.5 7.5zM274 151v400h246q33 0 50.5 -3t35 -17t27.5 -43q9 -28 8 -75q0 -80 -33 -116q-25 -22 -88 -22h-122v-124h-124zM470 484h-72v-142h72q30 0 38 8q12 12 12 64
q0 49 -12 61q-6 6 -12 7q-10 2 -26 2z" />
    <glyph glyph-name="servicemark" unicode="&#x2120;" horiz-adv-x="912" 
d="M142 700h192v-65h-143q-13 0 -16 -4q-4 -4 -4 -11q0 -11 11 -18l112 -89q47 -37 47 -81q0 -39 -26 -57.5t-66 -18.5h-197v66h148q20 0 20 13q0 9 -11 20l-108 86q-50 39 -50 83q0 38 25.5 57t65.5 19zM406 356v344h133q11 0 16 -3q3 -3 8 -15l66 -204q3 -7 4 -8
q12 2 13 9l63 221h155v-344h-110v228q0 6 -6 6t-7 -6l-62 -210q-3 -11 -8 -14.5t-16 -3.5h-87l-73 228q-6 5 -11 5q-2 0 -2 -3v-230h-76z" />
    <glyph glyph-name="trademark" unicode="&#x2122;" horiz-adv-x="890" 
d="M29 635v65h301v-65h-96v-277h-110v277h-95zM383 356v344h134q11 0 16 -3q3 -3 8 -15l66 -204q1 -5 4 -8q11 2 12 9l64 221h155v-344h-110v228q0 6 -6 6t-7 -6l-62 -210q-3 -11 -8 -14.5t-16 -3.5h-87l-73 228q-7 5 -11 5q-3 0 -3 -3v-230h-76z" />
    <glyph glyph-name="minus" unicode="&#x2212;" horiz-adv-x="674" 
d="M72 290v130h531v-130h-531z" />
    <glyph glyph-name="dotmath" unicode="&#x22c5;" horiz-adv-x="322" 
d="M72 275v161h178v-161h-178z" />
    <glyph glyph-name="hcoslug" unicode="&#xe10b;" horiz-adv-x="694" 
d="M644 700v-800h-594v800h594zM428 306q8 -11 19 -18q10 -7 24 -7q22 0 36 16t14 38t-14 38q-16 14 -36 14q-34 0 -60 -38q-3 37 -49 37q4 6 7 16q2 10 2 18q0 14 -6 27q-14 26 -48 41q-18 6 -41 6q-41 0 -75 -23t-34 -62q0 -38 31 -69q-82 -27 -82 -91q0 -21 9 -37
q8 -17 23 -29q30 -27 77 -27q63 0 104 45q45 -45 85 -45q37 0 57.5 28t22.5 66l-7 2q-16 -29 -43 -29q-16 0 -29 10q-15 10 -33 31q12 18 46 42zM352 125v-52h6l4 8q5 -8 14 -8t13 7q3 8 3 14q0 20 -15 20q-2 0 -8 -2q-3 -2 -5 -7v27h-18v-7h6zM125 81v-7h30v7h-10v16h4
q4 0 6 -8h7v23h-7q-2 -8 -6 -8h-4v18h12q4 0 8 -2q1 -3 3 -11h8v20h-51v-7h7v-41h-7zM286 124l-12 -2v-9h-7v-7h7v-20q0 -13 12 -13q13 0 14 13l-5 2q-1 -7 -5 -7t-4 5v20h13v7h-13v11zM195 73q9 0 15 6t6 15t-6 15q-7 5 -15 5t-15 -5q-6 -6 -6 -15q0 -10 6 -15q6 -6 15 -6z
M302 88v-14h7l1 4q9 -5 13 -5q14 0 14 13q0 8 -4 9q-1 1 -4 2t-4 1t-4 0.5t-4 1.5q-5 8 1 8t10 -7h7v13h-6l-2 -5q-2 5 -11 5q-7 0 -10 -4q-4 -4 -4 -8q0 -8 4 -9q3 -3 8 -3q2 0 4.5 -1t3.5 -1q4 -9 -1 -9t-12 9h-7zM219 81v-7h22v7h-4v15q0 10 7 10q6 0 6 -7v-18h-4v-7h22
v7h-6v19q0 14 -12 14q-9 0 -14 -11v10h-17v-7h6v-25h-6zM400 75q-7 0 -7 -7q0 -9 11 -9t18 16l13 31h5v7h-17v-7h5l-8 -20l-9 20h6v7h-25v-7h5q1 -7 6 -13q1 -3 5 -11q1 -2 3 -5t2 -4q-2 -8 -8 -8q0 10 -5 10zM276 7v-7h23v7h-5v25h14v-25h-5v-7h23v7h-6v52l-10 -2
q-2 2 -9 2q-19 0 -19 -19v-1h-7v-7h7v-25h-6zM498 -1q11 0 17 7q5 5 7 16h-8q-1 -16 -14 -16q-16 0 -16 22t14 22q11 0 15 -16h8v22h-8l-1 -6q-7 7 -16 7q-12 0 -19.5 -9t-7.5 -21q0 -13 8 -20.5t21 -7.5zM124 7v-7h29v7h-8v18h22v-18h-8v-7h29v7h-8v41h8v7h-29v-7h8v-16
h-22v16h8v7h-29v-7h8v-41h-8zM464 33h-18v-7h6q-5 -5 -8 -5t-3 2l-7 7q11 5 11 12q0 4 -3 8q-4 4 -11 4q-17 0 -17 -14q0 -6 6 -12q-13 -1 -13 -15t18 -14q9 0 15 6q4 -6 12 -6q12 0 13 12l-5 1q-4 -3 -7 -3q-1 0 -3 3q1 1 2.5 3.5t2.5 3.5l1 3q2 2 3 4h5v7zM247 18h26
q1 22 -19 22q-8 0 -14 -6.5t-6 -14.5q0 -20 21 -20q16 0 18 14h-7q-1 -7 -9 -7q-10 0 -10 12zM368 7v-7h26v7h-8v16q2 5 4 7l3 1q0 -6 6 -6q7 0 7 7q0 8 -8 8q-7 0 -12 -11v10h-18v-7h6v-25h-6zM546 -1q9 0 15 6t6 15t-6 15q-7 5 -15 5t-15 -5q-6 -6 -6 -15q0 -10 6 -15
q6 -6 15 -6zM210 -1q9 0 15 6t6 15t-6 15q-7 5 -15 5t-15 -5q-6 -6 -6 -15q0 -10 6 -15q6 -6 15 -6zM340 18h26q1 22 -19 22q-8 0 -14 -6.5t-6 -14.5q0 -20 21 -20q16 0 18 14h-7q-1 -7 -9 -7q-10 0 -10 12zM576 13q-7 0 -7 -7t7 -7t7 7t-7 7zM247 428q0 12 7.5 20.5
t19.5 8.5q29 0 29 -38q0 -12 -5 -25q-2 -5 -13 -25q-20 20 -27 29q-11 14 -11 30zM312 342q3 2 12 9l13 10q7 5 17 15q16 -16 15 -36q-1 -16 -16 -44q-7 7 -19 23zM261 219q-22 0 -37 15.5t-15 38.5q0 24 16 40q36 -36 74 -82q-15 -12 -38 -12zM372 80q-8 0 -8 13t8 13
q7 0 7 -13t-7 -13zM195 78q-8 0 -8 16q0 15 8 15t8 -15q0 -16 -8 -16zM294 39v3q0 12 6 12l2 -1h1l-1 -3q0 -6 6 -6v-5h-14zM425 43q0 5 5 5q6 0 6 -6q0 -7 -5 -9q-6 6 -6 10zM437 9l-8 -3q-10 0 -10 10q4 4 7 4q2 0 4 -3t7 -8zM254 35q7 0 7 -12h-14q0 12 7 12zM546 4
q-8 0 -8 16q0 15 8 15t8 -15q0 -16 -8 -16zM210 4q-8 0 -8 16q0 15 8 15t8 -15q0 -16 -8 -16zM347 35q7 0 7 -12h-14q0 12 7 12z" />
    <glyph glyph-name="bom" unicode="&#xfeff;" horiz-adv-x="0" 
 />
    <glyph glyph-name="NUL" horiz-adv-x="0" 
 />
    <glyph glyph-name="space.001" horiz-adv-x="25000" 
 />
    <glyph glyph-name="K.alt" horiz-adv-x="801" 
d="M101 0v700h190v-292h39q11 0 19 2q5 2 12 12l215 278h197l-256 -324l266 -376h-219l-203 289q-7 9 -12 12q-8 2 -19 2h-39v-303h-190z" />
    <glyph glyph-name="Q.alt" horiz-adv-x="827" 
d="M281 704h261q94 0 133.5 -27.5t63.5 -114.5q19 -72 19 -185q0 -195 -70 -265l-4 -4l96 -4v-104h-499q-92 0 -133.5 28.5t-61.5 112.5q-20 69 -20 209q0 35 1 59.5t4 67t11.5 72.5t21.5 62.5t35.5 54t52.5 29.5q32 9 89 9zM441 601h-57q-38 0 -55 -4t-31 -16
q-21 -23 -30 -75q-10 -51 -10 -156q0 -104 10 -154q10 -59 33.5 -76t82.5 -17h57q60 0 83.5 18.5t33.5 75.5q9 51 9 153q0 103 -9 155q-10 60 -34 78t-83 18z" />
    <glyph glyph-name="k.alt" horiz-adv-x="665" 
d="M297 345l176 215h176l-206 -252l206 -308h-195l-157 225q-7 9 -10 11q-6 2 -16 2h-14v-238h-177v725h177v-393h14q11 0 15 3q3 2 11 10z" />
    <glyph glyph-name="uni0136.alt" horiz-adv-x="801" 
d="M101 0v700h190v-292h39q11 0 19 2q5 2 12 12l215 278h197l-256 -324l266 -376h-219l-203 289q-7 9 -12 12q-8 2 -19 2h-39v-303h-190zM296 -273l51 215h148l-81 -215h-118z" />
    <glyph glyph-name="uni0137.alt" horiz-adv-x="665" 
d="M297 345l176 215h176l-206 -252l206 -308h-195l-157 225q-7 9 -10 11q-6 2 -16 2h-14v-238h-177v725h177v-393h14q11 0 15 3q3 2 11 10zM224 -271l51 215h148l-81 -215h-118z" />
    <glyph glyph-name="colon.fig" horiz-adv-x="316" 
d="M72 444v162h178v-162h-178zM72 100v162h178v-162h-178z" />
    <glyph glyph-name="periodcentered.cap" horiz-adv-x="316" 
d="M69 275v162h178v-162h-178z" />
    <glyph glyph-name="ampersand.alt" horiz-adv-x="738" 
d="M237 700h373v-109h-285q-23 0 -36 -3q-44 -13 -44 -86q0 -47 17 -67.5t63 -20.5h395v-107h-87v-307h-419q-88 0 -119.5 47.5t-31.5 138.5q0 79 27 120.5t98 48.5v5q-28 2 -46 10q-72 28 -72 155q0 143 92 167q30 8 75 8zM322 100h152v207h-152q-53 0 -69 -24.5t-16 -80.5
q0 -57 16 -79.5t69 -22.5z" />
    <glyph glyph-name="guillemotleft.cap" horiz-adv-x="631" 
d="M50 390l121 164h159l-123 -166q-2 -4 -4.5 -7.5l-4 -5.5l-3 -4t-1.5 -3q-3 -4 -3 -7t3 -7q0 -1 1.5 -3l3 -4l4 -5.5t4.5 -7.5l125 -172h-162l-120 164q-9 13 -12 19t-3 13q0 6 3 14q3 6 12 18zM314 390l121 164h159l-122 -166q-14 -19 -14 -20q-3 -4 -3 -7t3 -7
q0 -1 14 -20l124 -172h-162l-120 164q-9 13 -12 19t-3 13q0 6 3 14q3 6 12 18z" />
    <glyph glyph-name="guillemotright.cap" horiz-adv-x="631" 
d="M581 326l-121 -164h-159l123 166q3 5 6 9t5 7t3 4q2 6 2 7t-2 7q-1 1 -3 4t-5 7t-6 9l-125 172h162l120 -164q9 -12 12 -18q3 -8 3 -14q0 -7 -3 -13t-12 -19zM317 326l-121 -164h-159l123 166q3 5 6 9t5 7t3 4q2 6 2 7t-2 7q-1 1 -3 4t-5 7t-6 9l-125 172h162l120 -164
q9 -12 12 -18q3 -8 3 -14q0 -7 -3 -13t-12 -19z" />
    <glyph glyph-name="guilsinglleft.cap" horiz-adv-x="379" 
d="M50 390l121 164h171l-123 -166q-2 -4 -4.5 -7.5l-4 -5.5l-3 -4t-1.5 -3q-3 -4 -3 -7t3 -7q0 -1 1.5 -3l3 -4l4 -5.5t4.5 -7.5l125 -172h-174l-120 164q-9 13 -12 19t-3 13q0 6 3 14q3 6 12 18z" />
    <glyph glyph-name="guilsinglright.cap" horiz-adv-x="379" 
d="M329 326l-121 -164h-171l123 166q3 5 6 9t5 7t3 4q2 6 2 7t-2 7q-1 1 -3 4t-5 7t-6 9l-125 172h174l120 -164q7 -12 12 -18q3 -8 3 -14q0 -7 -3 -13t-12 -19z" />
    <glyph glyph-name="hyphen.cap" horiz-adv-x="391" 
d="M43 292v126h306v-126h-306z" />
    <glyph glyph-name="endash.cap" horiz-adv-x="580" 
d="M50 293v125h486v-125h-486z" />
    <glyph glyph-name="emdash.cap" horiz-adv-x="950" 
d="M50 293v125h856v-125h-856z" />
    <glyph glyph-name="slash.cap" horiz-adv-x="560" 
d="M5 -152l402 1005h148l-402 -1005h-148z" />
    <glyph glyph-name="backslash.cap" horiz-adv-x="560" 
d="M5 853h148l402 -1005h-148z" />
    <glyph glyph-name="bar.cap" horiz-adv-x="415" 
d="M140 -152v1005h143v-1005h-143z" />
    <glyph glyph-name="parenleft.cap" horiz-adv-x="516" 
d="M320 853h154v-86h-81q-56 0 -77 -21q-53 -53 -53 -395q0 -177 13 -264q8 -56 17 -85q11 -42 32.5 -55t67.5 -13h81v-86h-154q-107 0 -145 38q-78 78 -78 465q0 384 80 464q17 17 44 26t47 10.5t52 1.5z" />
    <glyph glyph-name="parenright.cap" horiz-adv-x="516" 
d="M196 -152h-154v86h80q56 0 77 21q53 53 53 395q0 344 -52 396q-23 21 -78 21h-80v86h154q32 0 52 -1.5t47.5 -10.5t44.5 -26q79 -79 79 -465q0 -383 -81 -464q-38 -38 -142 -38z" />
    <glyph glyph-name="bracketleft.cap" horiz-adv-x="503" 
d="M112 -152v1005h349v-86h-188v-833h188v-86h-349z" />
    <glyph glyph-name="bracketright.cap" horiz-adv-x="503" 
d="M42 853h349v-1005h-349v86h187v833h-187v86z" />
    <glyph glyph-name="braceleft.cap" horiz-adv-x="504" 
d="M184 853h260v-86h-168q-37 0 -37 -35q0 -10 3 -24q1 -10 7 -32l62 -210q12 -37 19 -67q5 -28 5 -49q0 -20 -5 -47q-7 -28 -19 -68l-62 -210q-6 -22 -7 -32q-3 -13 -3 -24q0 -35 37 -35h168v-86h-260q-110 0 -110 101q0 25 6 52q5 28 15 62l65 220q3 8 10 35q3 16 3 32
t-3 33q-6 22 -10 35l-65 220q-11 36 -15 63q-6 25 -6 51q0 101 110 101z" />
    <glyph glyph-name="braceright.cap" horiz-adv-x="505" 
d="M61 853h259q55 0 83 -23.5t28 -77.5q0 -43 -21 -114l-65 -220q-6 -19 -9 -34q-4 -15 -4 -33q0 -17 4 -32q3 -17 9 -36l65 -220q8 -27 16 -62q5 -30 5 -52q0 -54 -28 -77.5t-83 -23.5h-259v86h168q37 0 37 35q0 6 -2 24q-2 10 -8 32l-62 210q-14 45 -18 68q-6 24 -6 48
q0 23 6 48q4 23 18 67l62 210q6 22 8 32q2 18 2 24q0 35 -37 35h-168v86z" />
    <glyph glyph-name="at.cap" horiz-adv-x="810" 
d="M283 729h305q87 0 120 -40t33 -126v-390h-303q-44 0 -66 6q-77 15 -77 179q0 63 14.5 108t60.5 58q25 7 68 8l153 8v15q0 54 -18 69q-15 16 -53 16h-191q-40 0 -61 -6q-96 -34 -96 -280q0 -253 96 -281q20 -7 61 -7h412l-16 -88h-442q-61 0 -95 17t-65 65q-62 97 -62 292
q0 51 5.5 100.5t19.5 107.5t45.5 101t76.5 59q28 9 75 9zM591 263v205l-81 -5q-19 -1 -29.5 -3.5t-19.5 -12t-12 -28.5t-3 -54t3 -57q4 -27 18 -36t43 -9h81z" />
    <glyph glyph-name="caron.alt" 
d="M184 597v203h127l-26 -203h-101z" />
    <glyph glyph-name="uni0326.rot" 
d="M293 624h-147l80 215h119z" />
    </font>
</defs>
</svg>
