<?xml version="1.0" standalone="no"?>
<!DOCTYPE svg PUBLIC "-//W3C//DTD SVG 20010904//EN"
 "http://www.w3.org/TR/2001/REC-SVG-20010904/DTD/svg10.dtd">
<svg version="1.0" xmlns="http://www.w3.org/2000/svg"
 width="700.000000pt" height="700.000000pt" viewBox="0 0 700.000000 700.000000"
 preserveAspectRatio="xMidYMid meet">
<metadata>
Created by potrace 1.11, written by Peter Selinger 2001-2013
</metadata>
<g transform="translate(0.000000,700.000000) scale(0.100000,-0.100000)"
fill="#000000" stroke="none">
<path d="M1035 5743 l0 -168 175 0 175 0 1 -605 1 -605 200 -3 201 -2 0 567
c1 313 1 586 1 608 l1 41 174 -1 173 0 -1 165 -1 165 -550 3 -550 2 0 -167z"/>
<path d="M2432 5135 l0 -775 199 0 c152 0 199 3 200 13 0 6 1 145 2 307 l2
295 188 0 187 0 0 -307 0 -308 200 0 200 0 0 775 0 775 -200 0 -200 0 0 -295
0 -295 -22 -1 c-33 0 -309 0 -334 0 -21 1 -22 3 -22 269 -1 147 -1 279 -1 295
l-1 27 -199 0 -199 0 0 -775z"/>
<path d="M4050 5135 l0 -775 200 0 200 0 0 775 0 775 -200 0 -200 0 0 -775z"/>
<path d="M4974 5899 c-38 -11 -82 -53 -100 -96 -17 -39 -20 -666 -4 -724 5
-19 22 -47 37 -62 53 -50 80 -54 322 -55 145 0 226 -4 230 -10 11 -19 6 -243
-6 -250 -6 -4 -142 -7 -302 -7 l-291 0 0 -168 0 -167 436 0 c376 1 441 3 467
16 40 21 61 42 82 83 15 30 17 71 18 367 0 331 0 332 -24 381 -17 34 -36 55
-66 71 -40 22 -52 23 -260 24 -120 0 -226 2 -235 5 -16 4 -18 19 -18 134 0 96
3 129 13 131 6 0 131 2 277 3 146 2 272 3 280 4 15 1 16 14 11 294 l-1 37
-417 -1 c-230 0 -432 -5 -449 -10z"/>
<path d="M1234 4062 c-40 -8 -80 -33 -97 -61 -16 -27 -17 -72 -18 -468 0 -241
0 -468 1 -506 l0 -68 143 3 142 3 -1 133 c0 72 2 133 5 133 3 1 57 2 119 3 93
1 115 -1 121 -14 4 -8 6 -70 6 -138 l-1 -123 140 3 141 3 0 507 c0 498 0 507
-21 535 -40 54 -53 56 -369 57 -160 0 -300 -1 -311 -2z m408 -240 c9 -9 12
-58 13 -178 0 -193 15 -175 -145 -171 l-105 2 -1 165 c0 91 3 172 7 181 6 12
27 15 113 15 70 -1 109 -5 118 -14z"/>
<path d="M2264 4062 l-22 -3 0 -550 0 -549 142 0 141 0 0 190 0 190 177 0 c98
0 178 3 179 8 7 48 2 215 -6 221 -5 4 -85 7 -177 6 -107 0 -169 3 -171 10 -2
5 -3 62 -3 125 l1 115 208 0 207 0 0 118 c0 114 0 117 -22 118 -70 3 -636 4
-654 1z"/>
<path d="M3109 4060 c-24 -5 -24 -6 -23 -110 1 -58 2 -110 3 -116 1 -9 37 -11
121 -10 78 1 120 -1 121 -8 1 -6 2 -200 3 -431 l1 -420 143 -3 142 -3 0 430
c0 400 1 429 18 433 9 2 65 4 125 3 l107 -1 0 118 c0 115 0 118 -22 119 -100
4 -719 3 -739 -1z"/>
<path d="M4108 4062 l-28 -3 0 -550 0 -549 360 0 c407 0 361 -11 361 85 0 25
0 69 0 99 l-1 55 -210 -1 c-115 -1 -213 2 -217 6 -5 4 -8 49 -8 100 l-1 93
173 -1 c96 0 181 2 190 5 23 8 26 228 3 230 -8 1 -94 2 -190 2 l-175 2 0 95 0
95 217 0 218 0 1 35 c2 94 -1 193 -6 198 -5 6 -641 9 -687 4z"/>
<path d="M5092 4059 c-16 -6 -17 -46 -17 -553 l0 -546 142 0 143 0 0 175 0
176 61 -3 61 -3 45 -115 c24 -63 48 -124 53 -135 5 -11 16 -37 24 -57 l15 -38
135 0 c75 0 136 4 136 8 0 4 -29 82 -64 172 l-64 165 24 3 c14 2 42 20 64 41
46 44 42 5 41 384 -1 354 31 329 -438 331 -189 0 -351 -2 -361 -5z m513 -379
l0 -145 -122 -2 -123 -2 0 143 c0 78 2 145 5 148 3 3 58 5 123 4 l117 -1 0
-145z"/>
<path d="M1113 2682 l-33 -3 0 -145 0 -144 153 0 154 0 0 -527 c1 -291 2 -530
2 -533 1 -8 331 -3 339 5 4 3 7 241 7 528 l0 522 153 3 c83 1 152 6 153 10 4
37 3 266 -2 274 -6 9 -840 18 -926 10z"/>
<path d="M2379 2682 l-77 -3 2 -676 1 -677 160 -1 c88 0 166 1 173 3 9 3 12
66 12 268 0 145 3 265 8 265 4 1 76 2 161 3 101 1 155 -2 158 -9 2 -6 5 -127
6 -270 l2 -258 170 -1 170 0 3 677 c1 449 -1 677 -8 677 -5 1 -48 1 -95 1 -47
0 -121 0 -165 -1 l-80 0 0 -259 0 -258 -165 0 -165 1 0 257 0 258 -97 3 c-54
2 -132 2 -174 0z"/>
<path d="M3853 2679 c-68 -9 -108 -34 -130 -83 -16 -37 -18 -82 -18 -643 0
-332 2 -609 5 -616 6 -15 339 -18 341 -2 1 6 2 80 4 165 1 85 3 157 4 160 0 3
67 5 148 4 l148 0 3 -166 c2 -147 4 -166 20 -170 9 -2 87 -3 172 -2 l155 1 3
617 c2 594 1 618 -17 655 -26 50 -61 72 -124 77 -80 8 -656 10 -714 3z m498
-290 c11 -17 12 -429 2 -430 -5 -1 -74 -2 -154 -3 l-145 -1 0 213 c1 185 3
215 17 226 25 18 268 14 280 -5z"/>
<path d="M4956 2680 c-1 -3 -1 -68 -1 -145 l1 -140 154 -5 154 -5 0 -527 c0
-525 0 -528 21 -528 144 -4 317 -2 322 4 4 3 7 241 7 529 l1 522 153 3 152 3
0 144 c0 131 -2 145 -17 146 -97 3 -945 3 -947 -1z"/>
</g>
</svg>
