<svg xmlns="http://www.w3.org/2000/svg" viewBox="0 0 174.95 27.98"><defs><style>.cls-1{fill:#df322c;}.cls-2{fill:#e0e0e0;}</style></defs><title>Asset 10</title><g id="Layer_2" data-name="Layer 2"><g id="Layer_1-2" data-name="Layer 1"><polygon class="cls-1" points="14.71 0 18.18 10.69 29.42 10.69 20.33 17.29 23.8 27.98 14.71 21.37 5.62 27.98 9.09 17.29 0 10.69 11.24 10.69 14.71 0"/><polygon class="cls-1" points="50.96 0 54.44 10.69 65.67 10.69 56.58 17.29 60.05 27.98 50.96 21.37 41.87 27.98 45.34 17.29 36.26 10.69 47.49 10.69 50.96 0"/><polygon class="cls-1" points="87.22 0 90.69 10.69 101.93 10.69 92.84 17.29 96.31 27.98 87.22 21.37 78.13 27.98 81.6 17.29 72.51 10.69 83.75 10.69 87.22 0"/><polygon class="cls-1" points="123.47 0 126.94 10.69 138.18 10.69 129.09 17.29 132.56 27.98 123.47 21.37 114.38 27.98 117.85 17.29 108.76 10.69 120 10.69 123.47 0"/><polyline class="cls-1" points="159.73 21.37 150.64 27.98 154.11 17.29 145.02 10.69 156.25 10.69 159.73 0"/><polyline class="cls-2" points="160.25 21.37 169.34 27.98 165.87 17.29 174.96 10.69 163.72 10.69 160.25 0"/></g></g></svg>