<?xml version="1.0" standalone="no"?>
<!DOCTYPE svg PUBLIC "-//W3C//DTD SVG 20010904//EN"
 "http://www.w3.org/TR/2001/REC-SVG-20010904/DTD/svg10.dtd">
<svg version="1.0" xmlns="http://www.w3.org/2000/svg"
 width="761.000000pt" height="761.000000pt" viewBox="0 0 761.000000 761.000000"
 preserveAspectRatio="xMidYMid meet">
<metadata>
Created by potrace 1.11, written by Peter Selinger 2001-2013
</metadata>
<g transform="translate(0.000000,761.000000) scale(0.100000,-0.100000)"
fill="#000000" stroke="none">
<path d="M2 3808 l3 -3803 3803 -3 3802 -2 0 3805 0 3805 -3805 0 -3805 0 2
-3802z m4778 1662 c317 -39 530 -172 642 -400 100 -203 147 -456 169 -919 13
-256 7 -792 -11 -976 -46 -490 -139 -752 -327 -925 -119 -108 -270 -167 -488
-189 -72 -7 -529 -11 -1372 -11 l-1263 0 0 1715 0 1715 1283 0 c826 0 1313 -4
1367 -10z"/>
<path d="M3400 3765 l0 -1017 313 5 c337 5 381 10 456 60 124 82 154 279 154
987 0 730 -31 871 -208 952 -48 22 -60 23 -382 26 l-333 4 0 -1017z"/>
</g>
</svg>
